<?xml version="1.0" encoding="UTF-8"?>
<svg id="Layer_1" xmlns="http://www.w3.org/2000/svg" version="1.1" viewBox="0 0 763.06 553.06">
  <!-- Generator: Adobe Illustrator 30.6.0, SVG Export Plug-In . SVG Version: 2.1.4 Build 109)  -->
  <defs>
    <style>
      .st0 {
        isolation: isolate;
      }

      .st1 {
        fill: #ff595e;
      }

      .st2 {
        fill: #f9cb0d;
      }

      .st3 {
        fill: none;
        stroke: #000;
      }
    </style>
  </defs>
  <rect class="st2" x="124.22" y="9.19" width="564.2" height="34.75"/>
  <rect class="st1" x="124.22" y="52.63" width="469.49" height="34.75"/>
  <rect class="st1" x="124.22" y="96.07" width="406.72" height="34.75"/>
  <rect class="st1" x="124.22" y="139.52" width="388.27" height="34.75"/>
  <rect class="st1" x="124.22" y="182.96" width="382.46" height="34.75"/>
  <rect class="st1" x="124.22" y="226.4" width="347.28" height="34.75"/>
  <rect class="st1" x="124.22" y="269.84" width="289.7" height="34.75"/>
  <rect class="st1" x="124.22" y="313.29" width="287.83" height="34.75"/>
  <rect class="st1" x="124.22" y="356.73" width="283.65" height="34.75"/>
  <rect class="st1" x="124.22" y="400.17" width="274.66" height="34.75"/>
  <rect class="st1" x="124.22" y="443.61" width="219.63" height="34.75"/>
  <rect class="st1" x="124.22" y="487.06" width="162.21" height="34.75"/>
  <line class="st3" x1="124.22" y1="26.57" x2="118.22" y2="26.57"/>
  <g class="st0">
    <path d="M46.9,29.7c.59,0,1.03-.12,1.31-.37s.42-.58.42-1c0-.21-.04-.39-.13-.55s-.23-.31-.43-.44c-.2-.13-.48-.25-.83-.35l-.85-.28c-.74-.23-1.26-.53-1.57-.9s-.47-.82-.47-1.37c0-.35.1-.68.29-1,.2-.31.49-.57.89-.76s.9-.29,1.51-.29c.42,0,.82.03,1.18.1.36.06.77.16,1.24.29l-.18.9c-.48-.14-.9-.25-1.27-.32-.36-.07-.69-.1-.99-.1-.58,0-1,.11-1.24.32-.24.22-.37.48-.37.79,0,.22.04.41.13.59.08.18.23.33.43.46.2.13.48.26.84.38l.86.26c.73.23,1.25.52,1.55.85.31.34.46.79.46,1.37,0,.47-.11.88-.33,1.22-.22.34-.54.6-.95.79s-.92.28-1.51.28c-.45,0-.9-.05-1.36-.14-.46-.1-.95-.24-1.48-.44l.25-.89c.51.19.99.34,1.44.45.45.11.84.16,1.16.16Z"/>
    <path d="M53.3,29.69c.22,0,.43-.03.64-.09.21-.06.45-.16.71-.31.26-.15.57-.35.91-.62l-.1.95h-.11c-.35.29-.71.51-1.09.65-.37.15-.77.22-1.21.22-.5,0-.9-.14-1.22-.41-.32-.27-.47-.66-.47-1.18,0-.36.06-.66.19-.89.12-.23.33-.41.62-.55.29-.13.68-.23,1.18-.28l2.35-.28v.67l-2.17.29c-.31.04-.55.1-.72.19s-.28.2-.34.32c-.06.13-.08.28-.08.44,0,.27.07.48.22.63.15.15.37.22.68.22ZM56.44,29c0,.24.03.4.1.48s.2.13.4.14l.54.04-.07.79-.56-.02c-.41-.02-.72-.1-.93-.22s-.36-.32-.44-.59l-.04-.28v-2.81c0-.24-.04-.43-.12-.56-.08-.14-.23-.24-.44-.3-.21-.06-.51-.1-.91-.1-.22,0-.51.02-.86.05s-.72.09-1.12.15l-.11-.83c.42-.07.82-.13,1.19-.16.37-.04.68-.05.94-.05.62,0,1.11.06,1.46.19.35.13.6.32.75.59.15.26.22.61.22,1.04v2.45Z"/>
    <path d="M59.35,24.83l.11,1.24h.08c.22-.34.43-.6.62-.79.19-.19.37-.32.55-.4.17-.08.34-.11.5-.11.28,0,.5.08.65.24.15.16.23.43.23.8v.2h.1c.22-.32.41-.57.59-.75.18-.18.35-.31.52-.38.17-.07.34-.11.5-.11.3,0,.52.08.67.25s.22.44.22.83v4.55h-.94v-4.25c0-.14-.03-.25-.08-.31-.06-.06-.15-.09-.28-.09-.09,0-.19.03-.29.08-.11.06-.24.16-.4.31s-.36.37-.6.67v3.59h-.91v-4.26c0-.26-.12-.38-.36-.38-.09,0-.19.03-.3.08-.11.06-.25.16-.41.31s-.36.37-.6.68v3.58h-.94v-5.58h.77Z"/>
    <path d="M76.37,29.7c.59,0,1.03-.12,1.31-.37s.42-.58.42-1c0-.21-.04-.39-.13-.55s-.23-.31-.43-.44c-.2-.13-.48-.25-.83-.35l-.85-.28c-.74-.23-1.26-.53-1.57-.9s-.47-.82-.47-1.37c0-.35.1-.68.29-1,.2-.31.49-.57.89-.76s.9-.29,1.51-.29c.42,0,.82.03,1.18.1.36.06.77.16,1.24.29l-.18.9c-.48-.14-.9-.25-1.27-.32-.36-.07-.69-.1-.99-.1-.58,0-1,.11-1.24.32-.24.22-.37.48-.37.79,0,.22.04.41.13.59.08.18.23.33.43.46.2.13.48.26.84.38l.86.26c.73.23,1.25.52,1.55.85.31.34.46.79.46,1.37,0,.47-.11.88-.33,1.22-.22.34-.54.6-.95.79s-.92.28-1.51.28c-.45,0-.9-.05-1.36-.14-.46-.1-.95-.24-1.48-.44l.25-.89c.51.19.99.34,1.44.45.45.11.84.16,1.16.16Z"/>
    <path d="M81.42,29.54h5v.86h-5v-.86ZM81.65,24.83h2.3v.86h-2.3v-.86ZM83.77,23.17c-.26,0-.47-.06-.63-.19s-.25-.32-.25-.58c0-.22.08-.4.24-.54.16-.14.38-.22.66-.22s.51.07.65.2c.15.13.22.32.22.57s-.08.43-.24.56c-.16.13-.38.2-.66.2ZM83.4,24.83h1.03v5.58h-1.03v-5.58Z"/>
    <path d="M88.31,25.75v-.86h5.23v.86h-5.23ZM90.2,24.12c0-.52.07-.94.21-1.25.14-.31.37-.55.7-.71s.76-.26,1.31-.29l1.54-.1.07.88-1.5.11c-.51.03-.86.15-1.04.35s-.28.53-.28.97v1.2h.01v5.12h-1.02v-6.29Z"/>
    <path d="M97.41,28.28v-2.59h-1.88v-.86h1.9v-2.08h1v2.08h2.48v.86h-2.47v2.45c0,.34.03.61.1.81.06.2.18.34.34.42s.39.13.68.15l1.69.1-.07.88-1.86-.08c-.49-.02-.87-.1-1.15-.24-.28-.14-.47-.35-.58-.65-.11-.3-.17-.71-.17-1.23Z"/>
    <path d="M105.81,30.59c-.57,0-1.07-.12-1.51-.37-.44-.25-.78-.6-1.02-1.04-.24-.45-.37-.97-.37-1.57,0-.57.12-1.08.37-1.52.25-.45.59-.8,1.04-1.05.44-.25.95-.38,1.53-.38s1.07.13,1.51.38.78.6,1.02,1.05.37.97.37,1.56-.12,1.1-.37,1.54c-.25.44-.59.79-1.04,1.04s-.95.38-1.53.38ZM105.83,29.72c.55,0,1-.18,1.35-.55.35-.36.52-.88.52-1.55,0-.43-.08-.81-.24-1.12-.16-.32-.38-.56-.65-.74-.28-.18-.6-.26-.98-.26s-.69.09-.97.26c-.28.17-.5.42-.66.73-.16.32-.24.69-.24,1.12,0,.66.17,1.17.52,1.55.34.38.8.56,1.36.56Z"/>
    <path d="M111.54,24.83l.13,1.56h.02v4.02h-1.03v-5.58h.88ZM111.54,27.12l-.17-.78c.41-.4.76-.72,1.06-.95.3-.23.58-.4.85-.5.26-.1.54-.15.82-.15.57,0,.99.16,1.27.48.28.32.42.75.42,1.3v3.89h-1.03v-3.71c0-.34-.07-.6-.22-.77s-.39-.25-.73-.25c-.18,0-.38.04-.58.13-.2.09-.43.24-.7.44s-.6.5-.99.86Z"/>
  </g>
  <line class="st3" x1="124.22" y1="70.01" x2="118.22" y2="70.01"/>
  <g class="st0">
    <path d="M30.34,73.85h-1.06l2.57-7.86h.74v.61l-1.45,4.7-.8,2.54ZM30.5,71.71l.26-.84h3.19l.35.84h-3.8ZM35.69,73.85h-1.09l-.83-2.54h.01l-1.48-4.73.07-.59h.76l2.56,7.86Z"/>
    <path d="M36.88,65.33h2.71v.86h-2.71v-.86ZM39.08,71.87v-6.54h1.02v6.43c0,.43.09.74.26.91.17.18.45.27.85.29l1.31.08-.06.89-1.43-.08c-.48-.03-.86-.11-1.15-.24-.28-.13-.49-.33-.61-.61-.12-.28-.19-.66-.19-1.13Z"/>
    <path d="M47.82,73.09l1.15.04-.04.8-1.42-.02c-1.08-.02-1.86-.26-2.35-.74-.49-.48-.73-1.15-.73-2.02,0-.59.13-1.12.38-1.58s.6-.82,1.03-1.09c.44-.26.93-.4,1.49-.4s1.02.11,1.42.33c.4.22.71.54.93.97s.33.96.33,1.6c0,.09,0,.17-.01.24,0,.07-.02.14-.02.19h-5.03v-.77h4.48l-.42.29c0-.72-.15-1.24-.46-1.56-.3-.32-.71-.48-1.21-.48-.35,0-.67.09-.95.26-.28.17-.51.42-.68.75-.17.33-.26.73-.26,1.2,0,.44.08.8.24,1.09.16.29.42.5.77.65.35.14.81.22,1.37.24Z"/>
    <path d="M51.68,73.85l2.42-3.06h.17l1.87-2.52h1.19l-2.29,2.9h-.18l-1.98,2.68h-1.2ZM57.53,73.85h-1.26l-1.99-2.68h-.16l-2.29-2.9h1.27l1.84,2.52h.13l2.46,3.06Z"/>
    <path d="M61,73.13c.22,0,.43-.03.64-.09.21-.06.45-.16.71-.31.26-.15.57-.35.91-.62l-.1.95h-.11c-.35.29-.71.51-1.09.65-.37.15-.77.22-1.21.22-.5,0-.9-.14-1.22-.41-.32-.27-.47-.66-.47-1.18,0-.36.06-.66.19-.89.12-.23.33-.41.62-.55.29-.13.68-.23,1.18-.28l2.35-.28v.67l-2.17.29c-.31.04-.55.1-.72.19s-.28.2-.34.32c-.06.13-.08.28-.08.44,0,.27.07.48.22.63.15.15.37.22.68.22ZM64.14,72.44c0,.24.03.4.1.48s.2.13.4.14l.54.04-.07.79-.56-.02c-.41-.02-.72-.1-.93-.22s-.36-.32-.44-.59l-.04-.28v-2.81c0-.24-.04-.43-.12-.56-.08-.14-.23-.24-.44-.3-.21-.06-.51-.1-.91-.1-.22,0-.51.02-.86.05s-.72.09-1.12.15l-.11-.83c.42-.07.82-.13,1.19-.16.37-.04.68-.05.94-.05.62,0,1.11.06,1.46.19.35.13.6.32.75.59.15.26.22.61.22,1.04v2.45Z"/>
    <path d="M75.28,73.85h-.66l-1.06-7.86h1.02l.84,7.26-.14.6ZM78.33,73.85h-.64l-1.2-4.99h.36l-1.19,4.99h-.6l.05-.6,1.45-5.77h.29l1.45,5.76.02.61ZM78.76,73.85h-.64l-.12-.61.84-7.25h.98l-1.07,7.86Z"/>
    <path d="M84.66,73.09l1.15.04-.04.8-1.42-.02c-1.08-.02-1.86-.26-2.35-.74-.49-.48-.73-1.15-.73-2.02,0-.59.13-1.12.38-1.58s.6-.82,1.03-1.09c.44-.26.93-.4,1.49-.4s1.02.11,1.42.33c.4.22.71.54.93.97s.33.96.33,1.6c0,.09,0,.17-.01.24,0,.07-.02.14-.02.19h-5.03v-.77h4.48l-.42.29c0-.72-.15-1.24-.46-1.56-.3-.32-.71-.48-1.21-.48-.35,0-.67.09-.95.26-.28.17-.51.42-.68.75-.17.33-.26.73-.26,1.2,0,.44.08.8.24,1.09.16.29.42.5.77.65.35.14.81.22,1.37.24Z"/>
    <path d="M89.12,72.98h5v.86h-5v-.86ZM89.36,68.27h2.3v.86h-2.3v-.86ZM91.47,66.61c-.26,0-.47-.06-.63-.19s-.25-.32-.25-.58c0-.22.08-.4.24-.54.16-.14.38-.22.66-.22s.51.07.65.2c.15.13.22.32.22.57s-.08.43-.24.56c-.16.13-.38.2-.66.2ZM91.1,68.27h1.03v5.58h-1.03v-5.58Z"/>
    <path d="M97.25,65.33v8l-.73.53h-.3v-8.53h1.03ZM96.87,72.35c.33.26.63.45.92.56.28.11.56.17.83.17.46,0,.85-.1,1.16-.29.31-.2.54-.45.7-.77.16-.32.24-.65.24-1,0-.42-.08-.77-.23-1.07-.16-.3-.36-.53-.62-.69-.26-.16-.55-.24-.86-.24-.19,0-.39.04-.59.11-.2.07-.42.2-.65.38-.23.18-.5.44-.82.77l.1-.91c.38-.46.75-.77,1.1-.95.35-.18.73-.26,1.15-.26.46,0,.87.12,1.25.35.38.23.68.56.9.98.22.42.34.92.34,1.5,0,.54-.13,1.04-.38,1.49-.25.45-.6.81-1.06,1.07-.45.26-.98.4-1.58.4-.39,0-.77-.06-1.15-.19s-.73-.33-1.09-.6l.34-.8Z"/>
    <path d="M106.77,73.09l1.15.04-.04.8-1.42-.02c-1.08-.02-1.86-.26-2.35-.74-.49-.48-.73-1.15-.73-2.02,0-.59.13-1.12.38-1.58s.6-.82,1.03-1.09c.44-.26.93-.4,1.49-.4s1.02.11,1.42.33c.4.22.71.54.93.97s.33.96.33,1.6c0,.09,0,.17-.01.24,0,.07-.02.14-.02.19h-5.03v-.77h4.48l-.42.29c0-.72-.15-1.24-.46-1.56-.3-.32-.71-.48-1.21-.48-.35,0-.67.09-.95.26-.28.17-.51.42-.68.75-.17.33-.26.73-.26,1.2,0,.44.08.8.24,1.09.16.29.42.5.77.65.35.14.81.22,1.37.24Z"/>
    <path d="M110.56,65.33h2.71v.86h-2.71v-.86ZM112.76,71.87v-6.54h1.02v6.43c0,.43.09.74.26.91.17.18.45.27.85.29l1.31.08-.06.89-1.43-.08c-.48-.03-.86-.11-1.15-.24-.28-.13-.49-.33-.61-.61-.12-.28-.19-.66-.19-1.13Z"/>
  </g>
  <line class="st3" x1="124.22" y1="113.45" x2="118.22" y2="113.45"/>
  <g class="st0">
    <path d="M9.39,109.43v7.86h-1.04v-7.86h1.04ZM9.29,113.33l3.58-3.9h1.28v.02l-3.83,4.09-1.03-.22ZM9.29,113.33l.96-.46,4.04,4.39v.02h-1.37l-3.64-3.96Z"/>
    <path d="M18.85,116.54l1.15.04-.04.8-1.42-.02c-1.08-.02-1.86-.26-2.35-.74-.49-.48-.73-1.15-.73-2.02,0-.59.13-1.12.38-1.58s.6-.82,1.03-1.09c.44-.26.93-.4,1.49-.4s1.02.11,1.42.33c.4.22.71.54.93.97s.33.96.33,1.6c0,.09,0,.17-.01.24,0,.07-.02.14-.02.19h-5.03v-.77h4.48l-.42.29c0-.72-.15-1.24-.46-1.56-.3-.32-.71-.48-1.21-.48-.35,0-.67.09-.95.26-.28.17-.51.42-.68.75-.17.33-.26.73-.26,1.2,0,.44.08.8.24,1.09.16.29.42.5.77.65.35.14.81.22,1.37.24Z"/>
    <path d="M23.95,111.71l.13,1.56h.02v4.02h-1.03v-5.58h.88ZM23.95,114l-.17-.78c.41-.4.76-.72,1.06-.95.3-.23.58-.4.85-.5.26-.1.54-.15.82-.15.57,0,.99.16,1.27.48.28.32.42.75.42,1.3v3.89h-1.03v-3.71c0-.34-.07-.6-.22-.77s-.39-.25-.73-.25c-.18,0-.38.04-.58.13-.2.09-.43.24-.7.44s-.6.5-.99.86Z"/>
    <path d="M34.32,117.88c0,.5-.07.9-.22,1.21s-.38.54-.7.69c-.32.15-.75.24-1.28.28l-1.57.1-.04-.89,1.54-.11c.46-.04.78-.15.97-.34.19-.19.28-.49.28-.92v-6.18h1.03v6.17ZM30.73,111.71h3.01v.86h-3.01v-.86ZM33.65,110.05c-.26,0-.48-.06-.64-.19-.16-.13-.25-.32-.25-.58,0-.21.08-.38.25-.53.16-.14.38-.22.65-.22.29,0,.51.07.66.2.15.14.23.32.23.56s-.08.42-.25.55-.38.19-.65.19Z"/>
    <path d="M38.04,116.43h5v.86h-5v-.86ZM38.28,111.71h2.3v.86h-2.3v-.86ZM40.39,110.05c-.26,0-.47-.06-.63-.19s-.25-.32-.25-.58c0-.22.08-.4.24-.54.16-.14.38-.22.66-.22s.51.07.65.2c.15.13.22.32.22.57s-.08.43-.24.56c-.16.13-.38.2-.66.2ZM40.02,111.71h1.03v5.58h-1.03v-5.58Z"/>
    <path d="M52.58,109.43h1.04v7.86h-1.04v-7.86ZM52.83,117.29v-.85h5.1v.85h-5.1Z"/>
    <path d="M62.44,117.47c-.57,0-1.07-.12-1.51-.37-.44-.25-.78-.6-1.02-1.04-.24-.45-.37-.97-.37-1.57,0-.57.12-1.08.37-1.52.25-.45.59-.8,1.04-1.05.44-.25.95-.38,1.53-.38s1.07.13,1.51.38.78.6,1.02,1.05.37.97.37,1.56-.12,1.1-.37,1.54c-.25.44-.59.79-1.04,1.04s-.95.38-1.53.38ZM62.46,116.61c.55,0,1-.18,1.35-.55.35-.36.52-.88.52-1.55,0-.43-.08-.81-.24-1.12-.16-.32-.38-.56-.65-.74-.28-.18-.6-.26-.98-.26s-.69.09-.97.26c-.28.17-.5.42-.66.73-.16.32-.24.69-.24,1.12,0,.66.17,1.17.52,1.55.34.38.8.56,1.36.56ZM61.4,110.19l2.52-1.9.5.7-2.64,1.75-.38-.55Z"/>
    <path d="M67.25,120.05v-8.34h.88l.13,1.36h.02v6.98h-1.03ZM70.33,111.6c.45,0,.86.12,1.24.35s.68.56.9.98c.22.42.34.92.34,1.5s-.12,1.08-.37,1.52c-.24.44-.57.79-.98,1.04s-.88.38-1.4.38c-.31,0-.64-.07-.99-.22-.35-.14-.72-.44-1.12-.88l-.07-.89c.28.31.54.55.77.71s.45.27.65.33c.2.06.37.08.52.08.42,0,.77-.09,1.05-.27.28-.18.5-.43.65-.74.15-.32.23-.67.23-1.05,0-.41-.08-.76-.23-1.06-.16-.3-.36-.53-.62-.7-.26-.16-.55-.25-.86-.25-.19,0-.39.04-.59.11-.2.07-.42.2-.65.38-.23.18-.5.44-.82.79l.1-.89c.39-.46.76-.79,1.11-.97s.73-.27,1.15-.27Z"/>
    <path d="M77.8,116.54l1.15.04-.04.8-1.42-.02c-1.08-.02-1.86-.26-2.35-.74-.49-.48-.73-1.15-.73-2.02,0-.59.13-1.12.38-1.58s.6-.82,1.03-1.09c.44-.26.93-.4,1.49-.4s1.02.11,1.42.33c.4.22.71.54.93.97s.33.96.33,1.6c0,.09,0,.17-.01.24,0,.07-.02.14-.02.19h-5.03v-.77h4.48l-.42.29c0-.72-.15-1.24-.46-1.56-.3-.32-.71-.48-1.21-.48-.35,0-.67.09-.95.26-.28.17-.51.42-.68.75-.17.33-.26.73-.26,1.2,0,.44.08.8.24,1.09.16.29.42.5.77.65.35.14.81.22,1.37.24Z"/>
    <path d="M81.91,116.89v-.31l4.08-4.28-.26.62v-.84h1.43v.35l-4.06,4.28.29-.62v.8h-1.48ZM81.91,117.29v-.47l.68-.37h4.75v.84h-5.44ZM82.06,112.54v-.83h5.1v.46l-.79.37h-4.31Z"/>
    <path d="M89.69,112.86h4.49v1h-4.49v-1Z"/>
    <path d="M97.15,117.29h-1.06l2.57-7.86h.74v.61l-1.45,4.7-.8,2.54ZM97.31,115.16l.26-.84h3.19l.35.84h-3.8ZM102.51,117.29h-1.09l-.83-2.54h.01l-1.48-4.73.07-.59h.76l2.56,7.86Z"/>
    <path d="M103.69,108.77h2.71v.86h-2.71v-.86ZM105.89,115.31v-6.54h1.02v6.43c0,.43.09.74.26.91.17.18.45.27.85.29l1.31.08-.06.89-1.43-.08c-.48-.03-.86-.11-1.15-.24-.28-.13-.49-.33-.61-.61-.12-.28-.19-.66-.19-1.13Z"/>
    <path d="M112.98,115.17v-2.59h-1.88v-.86h1.9v-2.08h1v2.08h2.48v.86h-2.47v2.45c0,.34.03.61.1.81.06.2.18.34.34.42s.39.13.68.15l1.69.1-.07.88-1.86-.08c-.49-.02-.87-.1-1.15-.24-.28-.14-.47-.35-.58-.65-.11-.3-.17-.71-.17-1.23Z"/>
  </g>
  <line class="st3" x1="124.22" y1="156.89" x2="118.22" y2="156.89"/>
  <g class="st0">
    <path d="M34.79,153.75c-.25-.05-.46-.08-.63-.09-.17-.01-.36-.02-.57-.02-.61,0-1.14.12-1.6.35-.46.23-.81.58-1.07,1.05-.26.47-.38,1.05-.38,1.76,0,1.07.23,1.88.69,2.43.46.55,1.15.82,2.07.82.24,0,.49-.02.76-.06.26-.04.52-.1.76-.18l-.4.59v-3.43l.55.37h-2.44v-.84h2.88v4.1c-.38.1-.75.18-1.11.23-.36.05-.73.08-1.09.08-1.26,0-2.21-.35-2.83-1.05s-.93-1.71-.93-3.03c0-.86.17-1.6.52-2.21.34-.61.82-1.07,1.43-1.39.61-.32,1.33-.47,2.15-.47.2,0,.4,0,.59.02.19.02.43.04.72.08l-.08.88Z"/>
    <path d="M40.46,159.98l1.15.04-.04.8-1.42-.02c-1.08-.02-1.86-.26-2.35-.74-.49-.48-.73-1.15-.73-2.02,0-.59.13-1.12.38-1.58s.6-.82,1.03-1.09c.44-.26.93-.4,1.49-.4s1.02.11,1.42.33c.4.22.71.54.93.97s.33.96.33,1.6c0,.09,0,.17-.01.24,0,.07-.02.14-.02.19h-5.03v-.77h4.48l-.42.29c0-.72-.15-1.24-.46-1.56-.3-.32-.71-.48-1.21-.48-.35,0-.67.09-.95.26-.28.17-.51.42-.68.75-.17.33-.26.73-.26,1.2,0,.44.08.8.24,1.09.16.29.42.5.77.65.35.14.81.22,1.37.24Z"/>
    <path d="M45.56,155.15l.13,1.56h.02v4.02h-1.03v-5.58h.88ZM45.56,157.45l-.17-.78c.41-.4.76-.72,1.06-.95.3-.23.58-.4.85-.5.26-.1.54-.15.82-.15.57,0,.99.16,1.27.48.28.32.42.75.42,1.3v3.89h-1.03v-3.71c0-.34-.07-.6-.22-.77s-.39-.25-.73-.25c-.18,0-.38.04-.58.13-.2.09-.43.24-.7.44s-.6.5-.99.86Z"/>
    <path d="M55.19,159.98l1.15.04-.04.8-1.42-.02c-1.08-.02-1.86-.26-2.35-.74-.49-.48-.73-1.15-.73-2.02,0-.59.13-1.12.38-1.58s.6-.82,1.03-1.09c.44-.26.93-.4,1.49-.4s1.02.11,1.42.33c.4.22.71.54.93.97s.33.96.33,1.6c0,.09,0,.17-.01.24,0,.07-.02.14-.02.19h-5.03v-.77h4.48l-.42.29c0-.72-.15-1.24-.46-1.56-.3-.32-.71-.48-1.21-.48-.35,0-.67.09-.95.26-.28.17-.51.42-.68.75-.17.33-.26.73-.26,1.2,0,.44.08.8.24,1.09.16.29.42.5.77.65.35.14.81.22,1.37.24Z"/>
    <path d="M58.94,155.15h1.15l2.15,5.27.02.31h-.9l-2.42-5.58ZM63.89,155.15h1.09l-2.41,5.58h-.84v-.31l2.16-5.27Z"/>
    <path d="M67.01,159.87h5v.86h-5v-.86ZM67.25,155.15h2.3v.86h-2.3v-.86ZM69.36,153.5c-.26,0-.47-.06-.63-.19s-.25-.32-.25-.58c0-.22.08-.4.24-.54.16-.14.38-.22.66-.22s.51.07.65.2c.15.13.22.32.22.57s-.08.43-.24.56c-.16.13-.38.2-.66.2ZM68.99,155.15h1.03v5.58h-1.03v-5.58Z"/>
    <path d="M77.3,159.98l1.15.04-.04.8-1.42-.02c-1.08-.02-1.86-.26-2.35-.74-.49-.48-.73-1.15-.73-2.02,0-.59.13-1.12.38-1.58s.6-.82,1.03-1.09c.44-.26.93-.4,1.49-.4s1.02.11,1.42.33c.4.22.71.54.93.97s.33.96.33,1.6c0,.09,0,.17-.01.24,0,.07-.02.14-.02.19h-5.03v-.77h4.48l-.42.29c0-.72-.15-1.24-.46-1.56-.3-.32-.71-.48-1.21-.48-.35,0-.67.09-.95.26-.28.17-.51.42-.68.75-.17.33-.26.73-.26,1.2,0,.44.08.8.24,1.09.16.29.42.5.77.65.35.14.81.22,1.37.24Z"/>
    <path d="M81.04,155.15h1.15l2.15,5.27.02.31h-.9l-2.42-5.58ZM86,155.15h1.09l-2.41,5.58h-.84v-.31l2.16-5.27Z"/>
    <path d="M92.03,159.98l1.15.04-.04.8-1.42-.02c-1.08-.02-1.86-.26-2.35-.74-.49-.48-.73-1.15-.73-2.02,0-.59.13-1.12.38-1.58s.6-.82,1.03-1.09c.44-.26.93-.4,1.49-.4s1.02.11,1.42.33c.4.22.71.54.93.97s.33.96.33,1.6c0,.09,0,.17-.01.24,0,.07-.02.14-.02.19h-5.03v-.77h4.48l-.42.29c0-.72-.15-1.24-.46-1.56-.3-.32-.71-.48-1.21-.48-.35,0-.67.09-.95.26-.28.17-.51.42-.68.75-.17.33-.26.73-.26,1.2,0,.44.08.8.24,1.09.16.29.42.5.77.65.35.14.81.22,1.37.24Z"/>
    <path d="M104.67,152.87v7.86h-1.04v-7.86h1.04ZM104.57,156.77l3.58-3.9h1.28v.02l-3.83,4.09-1.03-.22ZM104.57,156.77l.96-.46,4.04,4.39v.02h-1.37l-3.64-3.96Z"/>
    <path d="M113.51,160.91c-.57,0-1.07-.12-1.51-.37-.44-.25-.78-.6-1.02-1.04-.24-.45-.37-.97-.37-1.57,0-.57.12-1.08.37-1.52.25-.45.59-.8,1.04-1.05.44-.25.95-.38,1.53-.38s1.07.13,1.51.38.78.6,1.02,1.05.37.97.37,1.56-.12,1.1-.37,1.54c-.25.44-.59.79-1.04,1.04s-.95.38-1.53.38ZM113.54,160.05c.55,0,1-.18,1.35-.55.35-.36.52-.88.52-1.55,0-.43-.08-.81-.24-1.12-.16-.32-.38-.56-.65-.74-.28-.18-.6-.26-.98-.26s-.69.09-.97.26c-.28.17-.5.42-.66.73-.16.32-.24.69-.24,1.12,0,.66.17,1.17.52,1.55.34.38.8.56,1.36.56Z"/>
  </g>
  <line class="st3" x1="124.22" y1="200.34" x2="118.22" y2="200.34"/>
  <g class="st0">
    <path d="M22.74,196.32h1.04v7.86h-1.04v-7.86ZM23.39,196.32h2.03c.97,0,1.71.23,2.23.68s.78,1.07.78,1.85c0,.82-.28,1.46-.85,1.91s-1.34.67-2.32.67h-1.87v-.85h1.94c.66,0,1.16-.15,1.51-.46.35-.31.53-.72.53-1.24s-.17-.95-.5-1.25-.82-.44-1.46-.44h-2.03v-.86Z"/>
    <path d="M29.58,203.31h4.27v.86h-4.27v-.86ZM29.82,198.6h1.96v.86h-1.96v-.86ZM31.96,198.6l.07,2.28h.04v3.3h-1.02v-5.58h.91ZM31.82,201.76l.08-1.06c.31-.46.58-.82.81-1.09.23-.27.43-.48.62-.61s.37-.23.55-.28c.18-.05.37-.09.58-.1l1.19-.07.07,1.02-1.14.1c-.26.02-.49.05-.67.09s-.36.13-.53.27c-.17.14-.38.34-.62.61-.24.27-.56.65-.95,1.13Z"/>
    <path d="M37.71,203.31h5v.86h-5v-.86ZM37.95,198.6h2.3v.86h-2.3v-.86ZM40.06,196.94c-.26,0-.47-.06-.63-.19s-.25-.32-.25-.58c0-.22.08-.4.24-.54.16-.14.38-.22.66-.22s.51.07.65.2c.15.13.22.32.22.57s-.08.43-.24.56c-.16.13-.38.2-.66.2ZM39.69,198.6h1.03v5.58h-1.03v-5.58Z"/>
    <path d="M47.44,205.65c-.14.33-.29.58-.46.76-.17.18-.37.3-.6.37-.23.07-.49.12-.79.14l-1.32.06-.02-.88,1.13-.06c.22,0,.41-.03.55-.08s.25-.11.34-.2.16-.21.23-.36l.7-1.55h.05l2.1-5.27h1.09l-2.99,7.06ZM44.39,198.6h1.15l2.12,5.22-.18.95h-.47l-2.63-6.17Z"/>
    <path d="M53.8,203.46c.22,0,.43-.03.64-.09.21-.06.45-.16.71-.31.26-.15.57-.35.91-.62l-.1.95h-.11c-.35.29-.71.51-1.09.65-.37.15-.77.22-1.21.22-.5,0-.9-.14-1.22-.41-.32-.27-.47-.66-.47-1.18,0-.36.06-.66.19-.89.12-.23.33-.41.62-.55.29-.13.68-.23,1.18-.28l2.35-.28v.67l-2.17.29c-.31.04-.55.1-.72.19s-.28.2-.34.32c-.06.13-.08.28-.08.44,0,.27.07.48.22.63.15.15.37.22.68.22ZM56.94,202.77c0,.24.03.4.1.48s.2.13.4.14l.54.04-.07.79-.56-.02c-.41-.02-.72-.1-.93-.22s-.36-.32-.44-.59l-.04-.28v-2.81c0-.24-.04-.43-.12-.56-.08-.14-.23-.24-.44-.3-.21-.06-.51-.1-.91-.1-.22,0-.51.02-.86.05s-.72.09-1.12.15l-.11-.83c.42-.07.82-.13,1.19-.16.37-.04.68-.05.94-.05.62,0,1.11.06,1.46.19.35.13.6.32.75.59.15.26.22.61.22,1.04v2.45Z"/>
    <path d="M68,196.32v7.86h-1.04v-7.86h1.04ZM67.9,200.22l3.58-3.9h1.28v.02l-3.83,4.09-1.03-.22ZM67.9,200.22l.96-.46,4.04,4.39v.02h-1.37l-3.64-3.96Z"/>
    <path d="M73.79,203.31h4.27v.86h-4.27v-.86ZM74.03,198.6h1.96v.86h-1.96v-.86ZM76.17,198.6l.07,2.28h.04v3.3h-1.02v-5.58h.91ZM76.02,201.76l.08-1.06c.31-.46.58-.82.81-1.09.23-.27.43-.48.62-.61s.37-.23.55-.28c.18-.05.37-.09.58-.1l1.19-.07.07,1.02-1.14.1c-.26.02-.49.05-.67.09s-.36.13-.53.27c-.17.14-.38.34-.62.61-.24.27-.56.65-.95,1.13Z"/>
    <path d="M81.92,203.31h5v.86h-5v-.86ZM82.16,198.6h2.3v.86h-2.3v-.86ZM84.27,196.94c-.26,0-.47-.06-.63-.19s-.25-.32-.25-.58c0-.22.08-.4.24-.54.16-.14.38-.22.66-.22s.51.07.65.2c.15.13.22.32.22.57s-.08.43-.24.56c-.16.13-.38.2-.66.2ZM83.9,198.6h1.03v5.58h-1.03v-5.58Z"/>
    <path d="M94.18,202.62c0,.32-.1.61-.29.86-.19.26-.49.46-.91.62s-.94.23-1.59.23c-.35,0-.72-.02-1.09-.05-.38-.04-.8-.1-1.26-.19l.16-.88c.42.09.83.15,1.23.2s.72.07.98.07c.66,0,1.12-.07,1.36-.22s.37-.34.37-.57c0-.19-.07-.35-.2-.47-.14-.12-.42-.24-.86-.34l-1.04-.24c-.51-.13-.9-.26-1.16-.41-.26-.14-.44-.31-.53-.51-.09-.2-.14-.42-.14-.68,0-.46.21-.85.62-1.15s1.1-.45,2.06-.45c.26,0,.59.02.97.06s.75.09,1.11.16l-.14.88c-.38-.09-.73-.15-1.07-.19s-.63-.06-.87-.06c-.42,0-.75.03-.99.09-.24.06-.4.14-.49.24-.09.1-.14.21-.14.34,0,.12.03.23.08.32.05.09.15.17.31.25s.38.15.67.23l1.03.24c.51.12.9.25,1.16.4.26.15.44.32.54.52.1.2.14.44.14.71Z"/>
    <path d="M97.46,195.66v8.52h-1.03v-8.52h1.03ZM97.3,200.89l-.17-.78c.41-.4.76-.72,1.06-.95.3-.23.58-.4.85-.5.26-.1.54-.15.82-.15.57,0,.99.16,1.27.48.28.32.42.75.42,1.3v3.89h-1.03v-3.71c0-.34-.07-.6-.22-.77s-.39-.25-.73-.25c-.18,0-.38.04-.58.13-.2.09-.43.24-.7.44s-.6.5-.99.86Z"/>
    <path d="M104.67,198.6l.13,1.56h.02v4.02h-1.03v-5.58h.88ZM104.67,200.89l-.17-.78c.41-.4.76-.72,1.06-.95.3-.23.58-.4.85-.5.26-.1.54-.15.82-.15.57,0,.99.16,1.27.48.28.32.42.75.42,1.3v3.89h-1.03v-3.71c0-.34-.07-.6-.22-.77s-.39-.25-.73-.25c-.18,0-.38.04-.58.13-.2.09-.43.24-.7.44s-.6.5-.99.86Z"/>
    <path d="M112.74,203.46c.22,0,.43-.03.64-.09.21-.06.45-.16.71-.31.26-.15.57-.35.91-.62l-.1.95h-.11c-.35.29-.71.51-1.09.65-.37.15-.77.22-1.21.22-.5,0-.9-.14-1.22-.41-.32-.27-.47-.66-.47-1.18,0-.36.06-.66.19-.89.12-.23.33-.41.62-.55.29-.13.68-.23,1.18-.28l2.35-.28v.67l-2.17.29c-.31.04-.55.1-.72.19s-.28.2-.34.32c-.06.13-.08.28-.08.44,0,.27.07.48.22.63.15.15.37.22.68.22ZM115.89,202.77c0,.24.03.4.1.48s.2.13.4.14l.54.04-.07.79-.56-.02c-.41-.02-.72-.1-.93-.22s-.36-.32-.44-.59l-.04-.28v-2.81c0-.24-.04-.43-.12-.56-.08-.14-.23-.24-.44-.3-.21-.06-.51-.1-.91-.1-.22,0-.51.02-.86.05s-.72.09-1.12.15l-.11-.83c.42-.07.82-.13,1.19-.16.37-.04.68-.05.94-.05.62,0,1.11.06,1.46.19.35.13.6.32.75.59.15.26.22.61.22,1.04v2.45Z"/>
  </g>
  <line class="st3" x1="124.22" y1="243.78" x2="118.22" y2="243.78"/>
  <g class="st0">
    <path d="M23.57,239.76l-.24,7.86h-.98l.32-7.86h.9ZM27.47,239.76l-2.06,5.71h-.24l-2.14-5.71h.8l1.66,4.43h-.37l1.63-4.43h.72ZM27.9,239.76l.32,7.86h-.98l-.24-7.86h.9Z"/>
    <path d="M33.26,246.86l1.15.04-.04.8-1.42-.02c-1.08-.02-1.86-.26-2.35-.74-.49-.48-.73-1.15-.73-2.02,0-.59.13-1.12.38-1.58s.6-.82,1.03-1.09c.44-.26.93-.4,1.49-.4s1.02.11,1.42.33c.4.22.71.54.93.97s.33.96.33,1.6c0,.09,0,.17-.01.24,0,.07-.02.14-.02.19h-5.03v-.77h4.48l-.42.29c0-.72-.15-1.24-.46-1.56-.3-.32-.71-.48-1.21-.48-.35,0-.67.09-.95.26-.28.17-.51.42-.68.75-.17.33-.26.73-.26,1.2,0,.44.08.8.24,1.09.16.29.42.5.77.65.35.14.81.22,1.37.24Z"/>
    <path d="M37.05,239.1h2.71v.86h-2.71v-.86ZM39.24,245.64v-6.54h1.02v6.43c0,.43.09.74.26.91.17.18.45.27.85.29l1.31.08-.06.89-1.43-.08c-.48-.03-.86-.11-1.15-.24-.28-.13-.49-.33-.61-.61-.12-.28-.19-.66-.19-1.13Z"/>
    <path d="M45.08,246.75h5v.86h-5v-.86ZM45.32,242.04h2.3v.86h-2.3v-.86ZM47.43,240.38c-.26,0-.47-.06-.63-.19s-.25-.32-.25-.58c0-.22.08-.4.24-.54.16-.14.38-.22.66-.22s.51.07.65.2c.15.13.22.32.22.57s-.08.43-.24.56c-.16.13-.38.2-.66.2ZM47.06,242.04h1.03v5.58h-1.03v-5.58Z"/>
    <path d="M57.34,246.06c0,.32-.1.61-.29.86-.19.26-.49.46-.91.62s-.94.23-1.59.23c-.35,0-.72-.02-1.09-.05-.38-.04-.8-.1-1.26-.19l.16-.88c.42.09.83.15,1.23.2s.72.07.98.07c.66,0,1.12-.07,1.36-.22s.37-.34.37-.57c0-.19-.07-.35-.2-.47-.14-.12-.42-.24-.86-.34l-1.04-.24c-.51-.13-.9-.26-1.16-.41-.26-.14-.44-.31-.53-.51-.09-.2-.14-.42-.14-.68,0-.46.21-.85.62-1.15s1.1-.45,2.06-.45c.26,0,.59.02.97.06s.75.09,1.11.16l-.14.88c-.38-.09-.73-.15-1.07-.19s-.63-.06-.87-.06c-.42,0-.75.03-.99.09-.24.06-.4.14-.49.24-.09.1-.14.21-.14.34,0,.12.03.23.08.32.05.09.15.17.31.25s.38.15.67.23l1.03.24c.51.12.9.25,1.16.4.26.15.44.32.54.52.1.2.14.44.14.71Z"/>
    <path d="M64.71,246.06c0,.32-.1.61-.29.86-.19.26-.49.46-.91.62s-.94.23-1.59.23c-.35,0-.72-.02-1.09-.05-.38-.04-.8-.1-1.26-.19l.16-.88c.42.09.83.15,1.23.2s.72.07.98.07c.66,0,1.12-.07,1.36-.22s.37-.34.37-.57c0-.19-.07-.35-.2-.47-.14-.12-.42-.24-.86-.34l-1.04-.24c-.51-.13-.9-.26-1.16-.41-.26-.14-.44-.31-.53-.51-.09-.2-.14-.42-.14-.68,0-.46.21-.85.62-1.15s1.1-.45,2.06-.45c.26,0,.59.02.97.06s.75.09,1.11.16l-.14.88c-.38-.09-.73-.15-1.07-.19s-.63-.06-.87-.06c-.42,0-.75.03-.99.09-.24.06-.4.14-.49.24-.09.1-.14.21-.14.34,0,.12.03.23.08.32.05.09.15.17.31.25s.38.15.67.23l1.03.24c.51.12.9.25,1.16.4.26.15.44.32.54.52.1.2.14.44.14.71Z"/>
    <path d="M68.54,246.9c.22,0,.43-.03.64-.09.21-.06.45-.16.71-.31.26-.15.57-.35.91-.62l-.1.95h-.11c-.35.29-.71.51-1.09.65-.37.15-.77.22-1.21.22-.5,0-.9-.14-1.22-.41-.32-.27-.47-.66-.47-1.18,0-.36.06-.66.19-.89.12-.23.33-.41.62-.55.29-.13.68-.23,1.18-.28l2.35-.28v.67l-2.17.29c-.31.04-.55.1-.72.19s-.28.2-.34.32c-.06.13-.08.28-.08.44,0,.27.07.48.22.63.15.15.37.22.68.22ZM71.68,246.21c0,.24.03.4.1.48s.2.13.4.14l.54.04-.07.79-.56-.02c-.41-.02-.72-.1-.93-.22s-.36-.32-.44-.59l-.04-.28v-2.81c0-.24-.04-.43-.12-.56-.08-.14-.23-.24-.44-.3-.21-.06-.51-.1-.91-.1-.22,0-.51.02-.86.05s-.72.09-1.12.15l-.11-.83c.42-.07.82-.13,1.19-.16.37-.04.68-.05.94-.05.62,0,1.11.06,1.46.19.35.13.6.32.75.59.15.26.22.61.22,1.04v2.45Z"/>
    <path d="M84.44,247.8c-1.02,0-1.82-.36-2.38-1.08-.56-.72-.84-1.72-.84-3.01,0-.82.14-1.55.43-2.17s.69-1.1,1.21-1.45c.52-.34,1.1-.52,1.76-.52.29,0,.56.03.82.1.26.06.53.17.82.33.29.16.62.37,1,.65l-.53.76c-.34-.26-.63-.47-.88-.61-.25-.14-.47-.24-.66-.29-.19-.05-.38-.08-.55-.08-.44,0-.84.13-1.19.38-.36.26-.64.62-.84,1.1-.2.48-.31,1.06-.31,1.75,0,.74.1,1.36.3,1.84.2.48.47.84.82,1.07.35.23.74.34,1.17.34.29,0,.61-.07.96-.22.35-.14.78-.41,1.28-.79l.49.71c-.57.43-1.08.73-1.54.91s-.9.26-1.34.26Z"/>
    <path d="M88.62,239.1h2.71v.86h-2.71v-.86ZM90.82,245.64v-6.54h1.02v6.43c0,.43.09.74.26.91.17.18.45.27.85.29l1.31.08-.06.89-1.43-.08c-.48-.03-.86-.11-1.15-.24-.28-.13-.49-.33-.61-.61-.12-.28-.19-.66-.19-1.13Z"/>
    <path d="M98.01,246.9c.22,0,.43-.03.64-.09.21-.06.45-.16.71-.31.26-.15.57-.35.91-.62l-.1.95h-.11c-.35.29-.71.51-1.09.65-.37.15-.77.22-1.21.22-.5,0-.9-.14-1.22-.41-.32-.27-.47-.66-.47-1.18,0-.36.06-.66.19-.89.12-.23.33-.41.62-.55.29-.13.68-.23,1.18-.28l2.35-.28v.67l-2.17.29c-.31.04-.55.1-.72.19s-.28.2-.34.32c-.06.13-.08.28-.08.44,0,.27.07.48.22.63.15.15.37.22.68.22ZM101.15,246.21c0,.24.03.4.1.48s.2.13.4.14l.54.04-.07.79-.56-.02c-.41-.02-.72-.1-.93-.22s-.36-.32-.44-.59l-.04-.28v-2.81c0-.24-.04-.43-.12-.56-.08-.14-.23-.24-.44-.3-.21-.06-.51-.1-.91-.1-.22,0-.51.02-.86.05s-.72.09-1.12.15l-.11-.83c.42-.07.82-.13,1.19-.16.37-.04.68-.05.94-.05.62,0,1.11.06,1.46.19.35.13.6.32.75.59.15.26.22.61.22,1.04v2.45Z"/>
    <path d="M103.26,246.75h4.27v.86h-4.27v-.86ZM103.5,242.04h1.96v.86h-1.96v-.86ZM105.64,242.04l.07,2.28h.04v3.3h-1.02v-5.58h.91ZM105.5,245.21l.08-1.06c.31-.46.58-.82.81-1.09.23-.27.43-.48.62-.61s.37-.23.55-.28c.18-.05.37-.09.58-.1l1.19-.07.07,1.02-1.14.1c-.26.02-.49.05-.67.09s-.36.13-.53.27c-.17.14-.38.34-.62.61-.24.27-.56.65-.95,1.13Z"/>
    <path d="M112.37,239.1v8.52h-1.02v-8.52h1.02ZM112.2,244.71l.07-.1.83-.3,3.56,3.28v.02h-1.38l-3.08-2.9ZM112.28,244.62l3.06-2.58h1.32v.02l-3.58,2.95-.8-.4Z"/>
  </g>
  <line class="st3" x1="124.22" y1="287.22" x2="118.22" y2="287.22"/>
  <g class="st0">
    <path d="M32.67,291.21c-.33,0-.64-.05-.95-.14-.3-.09-.64-.26-1-.51s-.8-.61-1.33-1.08l.66-.73c.46.43.85.76,1.16.98.31.22.57.37.8.45.22.08.44.11.64.11.86,0,1.3-.5,1.3-1.51v-5.58h1.04v5.64c0,.7-.19,1.27-.56,1.71-.38.44-.96.65-1.75.65Z"/>
    <path d="M41.52,288.76l.17.79c-.41.4-.76.72-1.06.95-.3.23-.58.4-.84.5-.26.1-.53.15-.82.15-.57,0-.99-.16-1.27-.48-.28-.32-.42-.75-.42-1.3v-3.89h1.03v3.71c0,.34.07.59.22.76.15.17.39.26.73.26.18,0,.38-.04.58-.13.2-.09.43-.24.7-.45s.6-.5.99-.87ZM42.4,291.06h-.94l-.07-1.57h-.02v-4.01h1.03v5.58Z"/>
    <path d="M44.25,282.54h2.71v.86h-2.71v-.86ZM46.44,289.08v-6.54h1.02v6.43c0,.43.09.74.26.91.17.18.45.27.85.29l1.31.08-.06.89-1.43-.08c-.48-.03-.86-.11-1.15-.24-.28-.13-.49-.33-.61-.61-.12-.28-.19-.66-.19-1.13Z"/>
    <path d="M52.28,290.2h5v.86h-5v-.86ZM52.52,285.48h2.3v.86h-2.3v-.86ZM54.63,283.83c-.26,0-.47-.06-.63-.19s-.25-.32-.25-.58c0-.22.08-.4.24-.54.16-.14.38-.22.66-.22s.51.07.65.2c.15.13.22.32.22.57s-.08.43-.24.56c-.16.13-.38.2-.66.2ZM54.26,285.48h1.03v5.58h-1.03v-5.58Z"/>
    <path d="M61,290.34c.22,0,.43-.03.64-.09.21-.06.45-.16.71-.31.26-.15.57-.35.91-.62l-.1.95h-.11c-.35.29-.71.51-1.09.65-.37.15-.77.22-1.21.22-.5,0-.9-.14-1.22-.41-.32-.27-.47-.66-.47-1.18,0-.36.06-.66.19-.89.12-.23.33-.41.62-.55.29-.13.68-.23,1.18-.28l2.35-.28v.67l-2.17.29c-.31.04-.55.1-.72.19s-.28.2-.34.32c-.06.13-.08.28-.08.44,0,.27.07.48.22.63.15.15.37.22.68.22ZM64.14,289.66c0,.24.03.4.1.48s.2.13.4.14l.54.04-.07.79-.56-.02c-.41-.02-.72-.1-.93-.22s-.36-.32-.44-.59l-.04-.28v-2.81c0-.24-.04-.43-.12-.56-.08-.14-.23-.24-.44-.3-.21-.06-.51-.1-.91-.1-.22,0-.51.02-.86.05s-.72.09-1.12.15l-.11-.83c.42-.07.82-.13,1.19-.16.37-.04.68-.05.94-.05.62,0,1.11.06,1.46.19.35.13.6.32.75.59.15.26.22.61.22,1.04v2.45Z"/>
    <path d="M74.98,283.2l-.24,7.86h-.98l.32-7.86h.9ZM78.88,283.2l-2.06,5.71h-.24l-2.14-5.71h.8l1.66,4.43h-.37l1.63-4.43h.72ZM79.31,283.2l.32,7.86h-.98l-.24-7.86h.9Z"/>
    <path d="M84.04,291.24c-.57,0-1.07-.12-1.51-.37-.44-.25-.78-.6-1.02-1.04-.24-.45-.37-.97-.37-1.57,0-.57.12-1.08.37-1.52.25-.45.59-.8,1.04-1.05.44-.25.95-.38,1.53-.38s1.07.13,1.51.38.78.6,1.02,1.05.37.97.37,1.56-.12,1.1-.37,1.54c-.25.44-.59.79-1.04,1.04s-.95.38-1.53.38ZM84.06,290.38c.55,0,1-.18,1.35-.55.35-.36.52-.88.52-1.55,0-.43-.08-.81-.24-1.12-.16-.32-.38-.56-.65-.74-.28-.18-.6-.26-.98-.26s-.69.09-.97.26c-.28.17-.5.42-.66.73-.16.32-.24.69-.24,1.12,0,.66.17,1.17.52,1.55.34.38.8.56,1.36.56Z"/>
    <path d="M94.01,289.5c0,.32-.1.61-.29.86-.19.26-.49.46-.91.62s-.94.23-1.59.23c-.35,0-.72-.02-1.09-.05-.38-.04-.8-.1-1.26-.19l.16-.88c.42.09.83.15,1.23.2s.72.07.98.07c.66,0,1.12-.07,1.36-.22s.37-.34.37-.57c0-.19-.07-.35-.2-.47-.14-.12-.42-.24-.86-.34l-1.04-.24c-.51-.13-.9-.26-1.16-.41-.26-.14-.44-.31-.53-.51-.09-.2-.14-.42-.14-.68,0-.46.21-.85.62-1.15s1.1-.45,2.06-.45c.26,0,.59.02.97.06s.75.09,1.11.16l-.14.88c-.38-.09-.73-.15-1.07-.19s-.63-.06-.87-.06c-.42,0-.75.03-.99.09-.24.06-.4.14-.49.24-.09.1-.14.21-.14.34,0,.12.03.23.08.32.05.09.15.17.31.25s.38.15.67.23l1.03.24c.51.12.9.25,1.16.4.26.15.44.32.54.52.1.2.14.44.14.71Z"/>
    <path d="M97.47,282.54v8.52h-1.02v-8.52h1.02ZM97.3,288.16l.07-.1.83-.3,3.56,3.28v.02h-1.38l-3.08-2.9ZM97.37,288.06l3.06-2.58h1.32v.02l-3.58,2.95-.8-.4Z"/>
    <path d="M103.85,290.2h5v.86h-5v-.86ZM104.09,285.48h2.3v.86h-2.3v-.86ZM106.2,283.83c-.26,0-.47-.06-.63-.19s-.25-.32-.25-.58c0-.22.08-.4.24-.54.16-.14.38-.22.66-.22s.51.07.65.2c.15.13.22.32.22.57s-.08.43-.24.56c-.16.13-.38.2-.66.2ZM105.83,285.48h1.03v5.58h-1.03v-5.58Z"/>
    <path d="M111.87,285.48l.13,1.56h.02v4.02h-1.03v-5.58h.88ZM111.87,287.77l-.17-.78c.41-.4.76-.72,1.06-.95.3-.23.58-.4.85-.5.26-.1.54-.15.82-.15.57,0,.99.16,1.27.48.28.32.42.75.42,1.3v3.89h-1.03v-3.71c0-.34-.07-.6-.22-.77s-.39-.25-.73-.25c-.18,0-.38.04-.58.13-.2.09-.43.24-.7.44s-.6.5-.99.86Z"/>
  </g>
  <line class="st3" x1="124.22" y1="330.66" x2="118.22" y2="330.66"/>
  <g class="st0">
    <path d="M18.29,334.68c-1.02,0-1.82-.36-2.38-1.08-.56-.72-.84-1.72-.84-3.01,0-.82.14-1.55.43-2.17s.69-1.1,1.21-1.45c.52-.34,1.1-.52,1.76-.52.29,0,.56.03.82.1.26.06.53.17.82.33.29.16.62.37,1,.65l-.53.76c-.34-.26-.63-.47-.88-.61-.25-.14-.47-.24-.66-.29-.19-.05-.38-.08-.55-.08-.44,0-.84.13-1.19.38-.36.26-.64.62-.84,1.1-.2.48-.31,1.06-.31,1.75,0,.74.1,1.36.3,1.84.2.48.47.84.82,1.07.35.23.74.34,1.17.34.29,0,.61-.07.96-.22.35-.14.78-.41,1.28-.79l.49.71c-.57.43-1.08.73-1.54.91s-.9.26-1.34.26Z"/>
    <path d="M22.48,325.98h2.71v.86h-2.71v-.86ZM24.67,332.52v-6.54h1.02v6.43c0,.43.09.74.26.91.17.18.45.27.85.29l1.31.08-.06.89-1.43-.08c-.48-.03-.86-.11-1.15-.24-.28-.13-.49-.33-.61-.61-.12-.28-.19-.66-.19-1.13Z"/>
    <path d="M31.86,333.78c.22,0,.43-.03.64-.09.21-.06.45-.16.71-.31.26-.15.57-.35.91-.62l-.1.95h-.11c-.35.29-.71.51-1.09.65-.37.15-.77.22-1.21.22-.5,0-.9-.14-1.22-.41-.32-.27-.47-.66-.47-1.18,0-.36.06-.66.19-.89.12-.23.33-.41.62-.55.29-.13.68-.23,1.18-.28l2.35-.28v.67l-2.17.29c-.31.04-.55.1-.72.19s-.28.2-.34.32c-.06.13-.08.28-.08.44,0,.27.07.48.22.63.15.15.37.22.68.22ZM35.01,333.1c0,.24.03.4.1.48s.2.13.4.14l.54.04-.07.79-.56-.02c-.41-.02-.72-.1-.93-.22s-.36-.32-.44-.59l-.04-.28v-2.81c0-.24-.04-.43-.12-.56-.08-.14-.23-.24-.44-.3-.21-.06-.51-.1-.91-.1-.22,0-.51.02-.86.05s-.72.09-1.12.15l-.11-.83c.42-.07.82-.13,1.19-.16.37-.04.68-.05.94-.05.62,0,1.11.06,1.46.19.35.13.6.32.75.59.15.26.22.61.22,1.04v2.45Z"/>
    <path d="M37.87,333.64h5v.86h-5v-.86ZM38.11,328.92h2.3v.86h-2.3v-.86ZM40.23,327.27c-.26,0-.47-.06-.63-.19s-.25-.32-.25-.58c0-.22.08-.4.24-.54.16-.14.38-.22.66-.22s.51.07.65.2c.15.13.22.32.22.57s-.08.43-.24.56c-.16.13-.38.2-.66.2ZM39.85,328.92h1.03v5.58h-1.03v-5.58Z"/>
    <path d="M44.49,333.64h4.27v.86h-4.27v-.86ZM44.73,328.92h1.96v.86h-1.96v-.86ZM46.86,328.92l.07,2.28h.04v3.3h-1.02v-5.58h.91ZM46.72,332.09l.08-1.06c.31-.46.58-.82.81-1.09.23-.27.43-.48.62-.61s.37-.23.55-.28c.18-.05.37-.09.58-.1l1.19-.07.07,1.02-1.14.1c-.26.02-.49.05-.67.09s-.36.13-.53.27c-.17.14-.38.34-.62.61-.24.27-.56.65-.95,1.13Z"/>
    <path d="M55.53,333.75l1.15.04-.04.8-1.42-.02c-1.08-.02-1.86-.26-2.35-.74-.49-.48-.73-1.15-.73-2.02,0-.59.13-1.12.38-1.58s.6-.82,1.03-1.09c.44-.26.93-.4,1.49-.4s1.02.11,1.42.33c.4.22.71.54.93.97s.33.96.33,1.6c0,.09,0,.17-.01.24,0,.07-.02.14-.02.19h-5.03v-.77h4.48l-.42.29c0-.72-.15-1.24-.46-1.56-.3-.32-.71-.48-1.21-.48-.35,0-.67.09-.95.26-.28.17-.51.42-.68.75-.17.33-.26.73-.26,1.2,0,.44.08.8.24,1.09.16.29.42.5.77.65.35.14.81.22,1.37.24Z"/>
    <path d="M69.67,333.8c.59,0,1.03-.12,1.31-.37s.42-.58.42-1c0-.21-.04-.39-.13-.55s-.23-.31-.43-.44c-.2-.13-.48-.25-.83-.35l-.85-.28c-.74-.23-1.26-.53-1.57-.9s-.47-.82-.47-1.37c0-.35.1-.68.29-1,.2-.31.49-.57.89-.76s.9-.29,1.51-.29c.42,0,.82.03,1.18.1.36.06.77.16,1.24.29l-.18.9c-.48-.14-.9-.25-1.27-.32-.36-.07-.69-.1-.99-.1-.58,0-1,.11-1.24.32-.24.22-.37.48-.37.79,0,.22.04.41.13.59.08.18.23.33.43.46.2.13.48.26.84.38l.86.26c.73.23,1.25.52,1.55.85.31.34.46.79.46,1.37,0,.47-.11.88-.33,1.22-.22.34-.54.6-.95.79s-.92.28-1.51.28c-.45,0-.9-.05-1.36-.14-.46-.1-.95-.24-1.48-.44l.25-.89c.51.19.99.34,1.44.45.45.11.84.16,1.16.16Z"/>
    <path d="M76.07,333.78c.22,0,.43-.03.64-.09.21-.06.45-.16.71-.31.26-.15.57-.35.91-.62l-.1.95h-.11c-.35.29-.71.51-1.09.65-.37.15-.77.22-1.21.22-.5,0-.9-.14-1.22-.41-.32-.27-.47-.66-.47-1.18,0-.36.06-.66.19-.89.12-.23.33-.41.62-.55.29-.13.68-.23,1.18-.28l2.35-.28v.67l-2.17.29c-.31.04-.55.1-.72.19s-.28.2-.34.32c-.06.13-.08.28-.08.44,0,.27.07.48.22.63.15.15.37.22.68.22ZM79.21,333.1c0,.24.03.4.1.48s.2.13.4.14l.54.04-.07.79-.56-.02c-.41-.02-.72-.1-.93-.22s-.36-.32-.44-.59l-.04-.28v-2.81c0-.24-.04-.43-.12-.56-.08-.14-.23-.24-.44-.3-.21-.06-.51-.1-.91-.1-.22,0-.51.02-.86.05s-.72.09-1.12.15l-.11-.83c.42-.07.82-.13,1.19-.16.37-.04.68-.05.94-.05.62,0,1.11.06,1.46.19.35.13.6.32.75.59.15.26.22.61.22,1.04v2.45Z"/>
    <path d="M81.61,329.85v-.86h5.23v.86h-5.23ZM83.5,328.22c0-.52.07-.94.21-1.25.14-.31.37-.55.7-.71s.76-.26,1.31-.29l1.54-.1.07.88-1.5.11c-.51.03-.86.15-1.04.35s-.28.53-.28.97v1.2h.01v5.12h-1.02v-6.29Z"/>
    <path d="M88.98,329.85v-.86h5.23v.86h-5.23ZM90.87,328.22c0-.52.07-.94.21-1.25.14-.31.37-.55.7-.71s.76-.26,1.31-.29l1.54-.1.07.88-1.5.11c-.51.03-.86.15-1.04.35s-.28.53-.28.97v1.2h.01v5.12h-1.02v-6.29Z"/>
    <path d="M96.82,333.64h5v.86h-5v-.86ZM97.06,328.92h2.3v.86h-2.3v-.86ZM99.17,327.27c-.26,0-.47-.06-.63-.19s-.25-.32-.25-.58c0-.22.08-.4.24-.54.16-.14.38-.22.66-.22s.51.07.65.2c.15.13.22.32.22.57s-.08.43-.24.56c-.16.13-.38.2-.66.2ZM98.8,328.92h1.03v5.58h-1.03v-5.58Z"/>
    <path d="M105.45,332.38v-2.59h-1.88v-.86h1.9v-2.08h1v2.08h2.48v.86h-2.47v2.45c0,.34.03.61.1.81.06.2.18.34.34.42s.39.13.68.15l1.69.1-.07.88-1.86-.08c-.49-.02-.87-.1-1.15-.24-.28-.14-.47-.35-.58-.65-.11-.3-.17-.71-.17-1.23Z"/>
    <path d="M111.22,334.11v-.31l4.08-4.28-.26.62v-.84h1.43v.35l-4.06,4.28.29-.62v.8h-1.48ZM111.22,334.5v-.47l.68-.37h4.75v.84h-5.44ZM111.36,329.75v-.83h5.1v.46l-.79.37h-4.31Z"/>
  </g>
  <line class="st3" x1="124.22" y1="374.11" x2="118.22" y2="374.11"/>
  <g class="st0">
    <path d="M3.98,374.09l-.43,1.15-3.06-5.16h1.2l2.29,4.01ZM3.17,374.31h1.04v3.64h-1.04v-3.64ZM3.43,374.08l2.28-4h1.16l-3.04,5.11-.41-1.12Z"/>
    <path d="M11.03,378.13c-.57,0-1.07-.12-1.51-.37-.44-.25-.78-.6-1.02-1.04-.24-.45-.37-.97-.37-1.57,0-.57.12-1.08.37-1.52.25-.45.59-.8,1.04-1.05.44-.25.95-.38,1.53-.38s1.07.13,1.51.38.78.6,1.02,1.05.37.97.37,1.56-.12,1.1-.37,1.54c-.25.44-.59.79-1.04,1.04s-.95.38-1.53.38ZM11.05,377.26c.55,0,1-.18,1.35-.55.35-.36.52-.88.52-1.55,0-.43-.08-.81-.24-1.12-.16-.32-.38-.56-.65-.74-.28-.18-.6-.26-.98-.26s-.69.09-.97.26c-.28.17-.5.42-.66.73-.16.32-.24.69-.24,1.12,0,.66.17,1.17.52,1.55.34.38.8.56,1.36.56Z"/>
    <path d="M17.36,375.82v-2.59h-1.88v-.86h1.9v-2.08h1v2.08h2.48v.86h-2.47v2.45c0,.34.03.61.1.81.06.2.18.34.34.42s.39.13.68.15l1.69.1-.07.88-1.86-.08c-.49-.02-.87-.1-1.15-.24-.28-.14-.47-.35-.58-.65-.11-.3-.17-.71-.17-1.23Z"/>
    <path d="M24.83,377.23c.22,0,.43-.03.64-.09.21-.06.45-.16.71-.31.26-.15.57-.35.91-.62l-.1.95h-.11c-.35.29-.71.51-1.09.65-.37.15-.77.22-1.21.22-.5,0-.9-.14-1.22-.41-.32-.27-.47-.66-.47-1.18,0-.36.06-.66.19-.89.12-.23.33-.41.62-.55.29-.13.68-.23,1.18-.28l2.35-.28v.67l-2.17.29c-.31.04-.55.1-.72.19s-.28.2-.34.32c-.06.13-.08.28-.08.44,0,.27.07.48.22.63.15.15.37.22.68.22ZM27.97,376.54c0,.24.03.4.1.48s.2.13.4.14l.54.04-.07.79-.56-.02c-.41-.02-.72-.1-.93-.22s-.36-.32-.44-.59l-.04-.28v-2.81c0-.24-.04-.43-.12-.56-.08-.14-.23-.24-.44-.3-.21-.06-.51-.1-.91-.1-.22,0-.51.02-.86.05s-.72.09-1.12.15l-.11-.83c.42-.07.82-.13,1.19-.16.37-.04.68-.05.94-.05.62,0,1.11.06,1.46.19.35.13.6.32.75.59.15.26.22.61.22,1.04v2.45Z"/>
    <path d="M30.88,372.37l.11,1.24h.08c.22-.34.43-.6.62-.79.19-.19.37-.32.55-.4.17-.08.34-.11.5-.11.28,0,.5.08.65.24.15.16.23.43.23.8v.2h.1c.22-.32.41-.57.59-.75.18-.18.35-.31.52-.38.17-.07.34-.11.5-.11.3,0,.52.08.67.25s.22.44.22.83v4.55h-.94v-4.25c0-.14-.03-.25-.08-.31-.06-.06-.15-.09-.28-.09-.09,0-.19.03-.29.08-.11.06-.24.16-.4.31s-.36.37-.6.67v3.59h-.91v-4.26c0-.26-.12-.38-.36-.38-.09,0-.19.03-.3.08-.11.06-.25.16-.41.31s-.36.37-.6.68v3.58h-.94v-5.58h.77Z"/>
    <path d="M50.9,374c0,.9-.12,1.65-.37,2.27-.25.62-.6,1.08-1.05,1.39-.45.31-.99.47-1.6.47-.9,0-1.63-.34-2.18-1.03-.55-.69-.82-1.7-.82-3.05,0-.9.12-1.65.37-2.26s.6-1.08,1.05-1.4c.45-.32.99-.48,1.6-.48.91,0,1.64.35,2.18,1.04s.82,1.71.82,3.05ZM45.95,374.02c0,.74.08,1.36.24,1.84.16.48.38.83.67,1.06.29.23.63.34,1.03.34s.76-.12,1.04-.35c.29-.23.51-.59.67-1.06.16-.48.23-1.09.23-1.83s-.08-1.37-.24-1.84c-.16-.48-.38-.83-.67-1.06-.29-.23-.63-.35-1.03-.35s-.76.12-1.04.35c-.29.23-.51.59-.67,1.06-.16.48-.23,1.09-.23,1.84Z"/>
    <path d="M54.2,375.82v-2.59h-1.88v-.86h1.9v-2.08h1v2.08h2.48v.86h-2.47v2.45c0,.34.03.61.1.81.06.2.18.34.34.42s.39.13.68.15l1.69.1-.07.88-1.86-.08c-.49-.02-.87-.1-1.15-.24-.28-.14-.47-.35-.58-.65-.11-.3-.17-.71-.17-1.23Z"/>
    <path d="M61.57,375.82v-2.59h-1.88v-.86h1.9v-2.08h1v2.08h2.48v.86h-2.47v2.45c0,.34.03.61.1.81.06.2.18.34.34.42s.39.13.68.15l1.69.1-.07.88-1.86-.08c-.49-.02-.87-.1-1.15-.24-.28-.14-.47-.35-.58-.65-.11-.3-.17-.71-.17-1.23Z"/>
    <path d="M69.97,378.13c-.57,0-1.07-.12-1.51-.37-.44-.25-.78-.6-1.02-1.04-.24-.45-.37-.97-.37-1.57,0-.57.12-1.08.37-1.52.25-.45.59-.8,1.04-1.05.44-.25.95-.38,1.53-.38s1.07.13,1.51.38.78.6,1.02,1.05.37.97.37,1.56-.12,1.1-.37,1.54c-.25.44-.59.79-1.04,1.04s-.95.38-1.53.38ZM70,377.26c.55,0,1-.18,1.35-.55.35-.36.52-.88.52-1.55,0-.43-.08-.81-.24-1.12-.16-.32-.38-.56-.65-.74-.28-.18-.6-.26-.98-.26s-.69.09-.97.26c-.28.17-.5.42-.66.73-.16.32-.24.69-.24,1.12,0,.66.17,1.17.52,1.55.34.38.8.56,1.36.56Z"/>
    <path d="M74.39,369.43h2.71v.86h-2.71v-.86ZM76.58,375.97v-6.54h1.02v6.43c0,.43.09.74.26.91.17.18.45.27.85.29l1.31.08-.06.89-1.43-.08c-.48-.03-.86-.11-1.15-.24-.28-.13-.49-.33-.61-.61-.12-.28-.19-.66-.19-1.13Z"/>
    <path d="M85.33,377.19l1.15.04-.04.8-1.42-.02c-1.08-.02-1.86-.26-2.35-.74-.49-.48-.73-1.15-.73-2.02,0-.59.13-1.12.38-1.58s.6-.82,1.03-1.09c.44-.26.93-.4,1.49-.4s1.02.11,1.42.33c.4.22.71.54.93.97s.33.96.33,1.6c0,.09,0,.17-.01.24,0,.07-.02.14-.02.19h-5.03v-.77h4.48l-.42.29c0-.72-.15-1.24-.46-1.56-.3-.32-.71-.48-1.21-.48-.35,0-.67.09-.95.26-.28.17-.51.42-.68.75-.17.33-.26.73-.26,1.2,0,.44.08.8.24,1.09.16.29.42.5.77.65.35.14.81.22,1.37.24Z"/>
    <path d="M90.43,372.37l.13,1.56h.02v4.02h-1.03v-5.58h.88ZM90.43,374.66l-.17-.78c.41-.4.76-.72,1.06-.95.3-.23.58-.4.85-.5.26-.1.54-.15.82-.15.57,0,.99.16,1.27.48.28.32.42.75.42,1.3v3.89h-1.03v-3.71c0-.34-.07-.6-.22-.77s-.39-.25-.73-.25c-.18,0-.38.04-.58.13-.2.09-.43.24-.7.44s-.6.5-.99.86Z"/>
    <path d="M96.49,375.07c0-.52.13-.99.38-1.42s.6-.76,1.06-1.02c.45-.26.98-.38,1.58-.38.39,0,.78.06,1.15.19s.74.33,1.09.6l-.34.8c-.33-.26-.64-.45-.92-.56s-.57-.17-.84-.17c-.46,0-.84.09-1.15.28-.31.18-.55.42-.71.71s-.24.61-.24.94c0,.38.08.71.23.99.16.28.37.5.63.65.26.15.55.23.85.23.19,0,.39-.04.59-.11.2-.07.42-.2.65-.38.24-.18.51-.44.81-.78l-.08.92c-.39.45-.76.76-1.11.94-.35.18-.73.26-1.16.26-.45,0-.86-.11-1.23-.33-.37-.22-.67-.53-.9-.94-.23-.4-.34-.88-.34-1.43ZM101.03,378.09v-5.3l.74-.46h.28v5.72c0,.59-.08,1.08-.25,1.46-.17.38-.44.67-.8.86-.37.19-.86.3-1.49.34l-2.06.11-.04-.88,1.97-.11c.61-.04,1.04-.19,1.28-.46s.37-.69.37-1.28Z"/>
    <path d="M105.32,369.43v8.52h-1.03v-8.52h1.03ZM105.17,374.66l-.17-.78c.41-.4.76-.72,1.06-.95.3-.23.58-.4.85-.5.26-.1.54-.15.82-.15.57,0,.99.16,1.27.48.28.32.42.75.42,1.3v3.89h-1.03v-3.71c0-.34-.07-.6-.22-.77s-.39-.25-.73-.25c-.18,0-.38.04-.58.13-.2.09-.43.24-.7.44s-.6.5-.99.86Z"/>
    <path d="M111.89,377.08h5v.86h-5v-.86ZM112.13,372.37h2.3v.86h-2.3v-.86ZM114.24,370.71c-.26,0-.47-.06-.63-.19s-.25-.32-.25-.58c0-.22.08-.4.24-.54.16-.14.38-.22.66-.22s.51.07.65.2c.15.13.22.32.22.57s-.08.43-.24.56c-.16.13-.38.2-.66.2ZM113.87,372.37h1.03v5.58h-1.03v-5.58Z"/>
  </g>
  <line class="st3" x1="124.22" y1="417.55" x2="118.22" y2="417.55"/>
  <g class="st0">
    <path d="M58.79,413.53h1.04v7.86h-1.04v-7.86ZM58.93,414.39v-.86h5.1v.86h-5.1ZM58.93,417.85v-.86h4.45v.86h-4.45ZM58.93,421.39v-.86h5.18v.86h-5.18Z"/>
    <path d="M65.59,420.53h4.27v.86h-4.27v-.86ZM65.83,415.81h1.96v.86h-1.96v-.86ZM67.97,415.81l.07,2.28h.04v3.3h-1.02v-5.58h.91ZM67.82,418.98l.08-1.06c.31-.46.58-.82.81-1.09.23-.27.43-.48.62-.61s.37-.23.55-.28c.18-.05.37-.09.58-.1l1.19-.07.07,1.02-1.14.1c-.26.02-.49.05-.67.09s-.36.13-.53.27c-.17.14-.38.34-.62.61-.24.27-.56.65-.95,1.13Z"/>
    <path d="M73.71,420.53h5v.86h-5v-.86ZM73.95,415.81h2.3v.86h-2.3v-.86ZM76.07,414.15c-.26,0-.47-.06-.63-.19s-.25-.32-.25-.58c0-.22.08-.4.24-.54.16-.14.38-.22.66-.22s.51.07.65.2c.15.13.22.32.22.57s-.08.43-.24.56c-.16.13-.38.2-.66.2ZM75.69,415.81h1.03v5.58h-1.03v-5.58Z"/>
    <path d="M83.65,416.51c-.4,0-.75.09-1.06.26-.31.18-.55.42-.71.73-.17.31-.25.67-.25,1.07,0,.42.08.8.25,1.12.17.32.4.57.69.74s.62.26.98.26c.3,0,.62-.05.97-.14s.78-.28,1.3-.56l.44.71c-.58.34-1.09.58-1.51.7-.42.12-.84.18-1.25.18-.56,0-1.06-.12-1.51-.36-.44-.24-.79-.59-1.05-1.04-.26-.45-.38-.99-.38-1.61,0-.55.14-1.05.41-1.49.27-.44.64-.79,1.1-1.05.46-.26.99-.38,1.57-.38.25,0,.5.02.75.07s.53.13.82.26c.3.13.63.32,1.01.58l-.47.76c-.34-.23-.64-.4-.89-.51-.25-.11-.47-.18-.65-.22-.19-.04-.37-.05-.56-.05Z"/>
    <path d="M96.63,413.53v7.86h-1.04v-7.86h1.04ZM96.54,417.43l3.58-3.9h1.28v.02l-3.83,4.09-1.03-.22ZM96.54,417.43l.96-.46,4.04,4.39v.02h-1.37l-3.64-3.96Z"/>
    <path d="M103.19,420.53h5v.86h-5v-.86ZM103.43,415.81h2.3v.86h-2.3v-.86ZM105.54,414.15c-.26,0-.47-.06-.63-.19s-.25-.32-.25-.58c0-.22.08-.4.24-.54.16-.14.38-.22.66-.22s.51.07.65.2c.15.13.22.32.22.57s-.08.43-.24.56c-.16.13-.38.2-.66.2ZM105.17,415.81h1.03v5.58h-1.03v-5.58Z"/>
    <path d="M110.59,415.81l.11,1.24h.08c.22-.34.43-.6.62-.79.19-.19.37-.32.55-.4.17-.08.34-.11.5-.11.28,0,.5.08.65.24.15.16.23.43.23.8v.2h.1c.22-.32.41-.57.59-.75.18-.18.35-.31.52-.38.17-.07.34-.11.5-.11.3,0,.52.08.67.25s.22.44.22.83v4.55h-.94v-4.25c0-.14-.03-.25-.08-.31-.06-.06-.15-.09-.28-.09-.09,0-.19.03-.29.08-.11.06-.24.16-.4.31s-.36.37-.6.67v3.59h-.91v-4.26c0-.26-.12-.38-.36-.38-.09,0-.19.03-.3.08-.11.06-.25.16-.41.31s-.36.37-.6.68v3.58h-.94v-5.58h.77Z"/>
  </g>
  <line class="st3" x1="124.22" y1="460.99" x2="118.22" y2="460.99"/>
  <g class="st0">
    <path d="M59.79,456.97v7.86h-1.04v-7.86h1.04ZM59.7,460.87l3.58-3.9h1.28v.02l-3.83,4.09-1.03-.22ZM59.7,460.87l.96-.46,4.04,4.39v.02h-1.37l-3.64-3.96Z"/>
    <path d="M67.7,464.11c.22,0,.43-.03.64-.09.21-.06.45-.16.71-.31.26-.15.57-.35.91-.62l-.1.95h-.11c-.35.29-.71.51-1.09.65-.37.15-.77.22-1.21.22-.5,0-.9-.14-1.22-.41-.32-.27-.47-.66-.47-1.18,0-.36.06-.66.19-.89.12-.23.33-.41.62-.55.29-.13.68-.23,1.18-.28l2.35-.28v.67l-2.17.29c-.31.04-.55.1-.72.19s-.28.2-.34.32c-.06.13-.08.28-.08.44,0,.27.07.48.22.63.15.15.37.22.68.22ZM70.85,463.43c0,.24.03.4.1.48s.2.13.4.14l.54.04-.07.79-.56-.02c-.41-.02-.72-.1-.93-.22s-.36-.32-.44-.59l-.04-.28v-2.81c0-.24-.04-.43-.12-.56-.08-.14-.23-.24-.44-.3-.21-.06-.51-.1-.91-.1-.22,0-.51.02-.86.05s-.72.09-1.12.15l-.11-.83c.42-.07.82-.13,1.19-.16.37-.04.68-.05.94-.05.62,0,1.11.06,1.46.19.35.13.6.32.75.59.15.26.22.61.22,1.04v2.45Z"/>
    <path d="M76.08,466.31c-.14.33-.29.58-.46.76-.17.18-.37.3-.6.37-.23.07-.49.12-.79.14l-1.32.06-.02-.88,1.13-.06c.22,0,.41-.03.55-.08s.25-.11.34-.2.16-.21.23-.36l.7-1.55h.05l2.1-5.27h1.09l-2.99,7.06ZM73.03,459.25h1.15l2.12,5.22-.18.95h-.47l-2.63-6.17Z"/>
    <path d="M90.97,465.01c-1.02,0-1.82-.36-2.38-1.08-.56-.72-.84-1.72-.84-3.01,0-.82.14-1.55.43-2.17s.69-1.1,1.21-1.45c.52-.34,1.1-.52,1.76-.52.29,0,.56.03.82.1.26.06.53.17.82.33.29.16.62.37,1,.65l-.53.76c-.34-.26-.63-.47-.88-.61-.25-.14-.47-.24-.66-.29-.19-.05-.38-.08-.55-.08-.44,0-.84.13-1.19.38-.36.26-.64.62-.84,1.1-.2.48-.31,1.06-.31,1.75,0,.74.1,1.36.3,1.84.2.48.47.84.82,1.07.35.23.74.34,1.17.34.29,0,.61-.07.96-.22.35-.14.78-.41,1.28-.79l.49.71c-.57.43-1.08.73-1.54.91s-.9.26-1.34.26Z"/>
    <path d="M96.62,456.31v8.52h-1.03v-8.52h1.03ZM96.47,461.54l-.17-.78c.41-.4.76-.72,1.06-.95.3-.23.58-.4.85-.5.26-.1.54-.15.82-.15.57,0,.99.16,1.27.48.28.32.42.75.42,1.3v3.89h-1.03v-3.71c0-.34-.07-.6-.22-.77s-.39-.25-.73-.25c-.18,0-.38.04-.58.13-.2.09-.43.24-.7.44s-.6.5-.99.86Z"/>
    <path d="M107.17,462.53l.17.79c-.41.4-.76.72-1.06.95-.3.23-.58.4-.84.5-.26.1-.53.15-.82.15-.57,0-.99-.16-1.27-.48-.28-.32-.42-.75-.42-1.3v-3.89h1.03v3.71c0,.34.07.59.22.76.15.17.39.26.73.26.18,0,.38-.04.58-.13.2-.09.43-.24.7-.45s.6-.5.99-.87ZM108.05,464.83h-.94l-.07-1.57h-.02v-4.01h1.03v5.58Z"/>
    <path d="M111.2,459.25l.13,1.56h.02v4.02h-1.03v-5.58h.88ZM111.2,461.54l-.17-.78c.41-.4.76-.72,1.06-.95.3-.23.58-.4.85-.5.26-.1.54-.15.82-.15.57,0,.99.16,1.27.48.28.32.42.75.42,1.3v3.89h-1.03v-3.71c0-.34-.07-.6-.22-.77s-.39-.25-.73-.25c-.18,0-.38.04-.58.13-.2.09-.43.24-.7.44s-.6.5-.99.86Z"/>
  </g>
  <line class="st3" x1="124.22" y1="504.43" x2="118.22" y2="504.43"/>
  <g class="st0">
    <path d="M22.78,500.41h1.04v7.86h-1.04v-7.86ZM23.02,508.27v-.85h5.1v.85h-5.1Z"/>
    <path d="M30.34,507.41h5v.86h-5v-.86ZM30.58,502.69h2.3v.86h-2.3v-.86ZM32.69,501.04c-.26,0-.47-.06-.63-.19s-.25-.32-.25-.58c0-.22.08-.4.24-.54.16-.14.38-.22.66-.22s.51.07.65.2c.15.13.22.32.22.57s-.08.43-.24.56c-.16.13-.38.2-.66.2ZM32.32,502.69h1.03v5.58h-1.03v-5.58Z"/>
    <path d="M37.05,505.39c0-.52.13-.99.38-1.42s.6-.76,1.06-1.02c.45-.26.98-.38,1.58-.38.39,0,.78.06,1.15.19s.74.33,1.09.6l-.34.8c-.33-.26-.64-.45-.92-.56s-.57-.17-.84-.17c-.46,0-.84.09-1.15.28-.31.18-.55.42-.71.71s-.24.61-.24.94c0,.38.08.71.23.99.16.28.37.5.63.65.26.15.55.23.85.23.19,0,.39-.04.59-.11.2-.07.42-.2.65-.38.24-.18.51-.44.81-.78l-.08.92c-.39.45-.76.76-1.11.94-.35.18-.73.26-1.16.26-.45,0-.86-.11-1.23-.33-.37-.22-.67-.53-.9-.94-.23-.4-.34-.88-.34-1.43ZM41.58,508.42v-5.3l.74-.46h.28v5.72c0,.59-.08,1.08-.25,1.46-.17.38-.44.67-.8.86-.37.19-.86.3-1.49.34l-2.06.11-.04-.88,1.97-.11c.61-.04,1.04-.19,1.28-.46s.37-.69.37-1.28Z"/>
    <path d="M46.43,507.55c.22,0,.43-.03.64-.09.21-.06.45-.16.71-.31.26-.15.57-.35.91-.62l-.1.95h-.11c-.35.29-.71.51-1.09.65-.37.15-.77.22-1.21.22-.5,0-.9-.14-1.22-.41-.32-.27-.47-.66-.47-1.18,0-.36.06-.66.19-.89.12-.23.33-.41.62-.55.29-.13.68-.23,1.18-.28l2.35-.28v.67l-2.17.29c-.31.04-.55.1-.72.19s-.28.2-.34.32c-.06.13-.08.28-.08.44,0,.27.07.48.22.63.15.15.37.22.68.22ZM49.58,506.87c0,.24.03.4.1.48s.2.13.4.14l.54.04-.07.79-.56-.02c-.41-.02-.72-.1-.93-.22s-.36-.32-.44-.59l-.04-.28v-2.81c0-.24-.04-.43-.12-.56-.08-.14-.23-.24-.44-.3-.21-.06-.51-.1-.91-.1-.22,0-.51.02-.86.05s-.72.09-1.12.15l-.11-.83c.42-.07.82-.13,1.19-.16.37-.04.68-.05.94-.05.62,0,1.11.06,1.46.19.35.13.6.32.75.59.15.26.22.61.22,1.04v2.45Z"/>
    <path d="M54.81,509.75c-.14.33-.29.58-.46.76-.17.18-.37.3-.6.37-.23.07-.49.12-.79.14l-1.32.06-.02-.88,1.13-.06c.22,0,.41-.03.55-.08s.25-.11.34-.2.16-.21.23-.36l.7-1.55h.05l2.1-5.27h1.09l-2.99,7.06ZM51.76,502.69h1.15l2.12,5.22-.18.95h-.47l-2.63-6.17Z"/>
    <path d="M61.17,507.55c.22,0,.43-.03.64-.09.21-.06.45-.16.71-.31.26-.15.57-.35.91-.62l-.1.95h-.11c-.35.29-.71.51-1.09.65-.37.15-.77.22-1.21.22-.5,0-.9-.14-1.22-.41-.32-.27-.47-.66-.47-1.18,0-.36.06-.66.19-.89.12-.23.33-.41.62-.55.29-.13.68-.23,1.18-.28l2.35-.28v.67l-2.17.29c-.31.04-.55.1-.72.19s-.28.2-.34.32c-.06.13-.08.28-.08.44,0,.27.07.48.22.63.15.15.37.22.68.22ZM64.31,506.87c0,.24.03.4.1.48s.2.13.4.14l.54.04-.07.79-.56-.02c-.41-.02-.72-.1-.93-.22s-.36-.32-.44-.59l-.04-.28v-2.81c0-.24-.04-.43-.12-.56-.08-.14-.23-.24-.44-.3-.21-.06-.51-.1-.91-.1-.22,0-.51.02-.86.05s-.72.09-1.12.15l-.11-.83c.42-.07.82-.13,1.19-.16.37-.04.68-.05.94-.05.62,0,1.11.06,1.46.19.35.13.6.32.75.59.15.26.22.61.22,1.04v2.45Z"/>
    <path d="M75.15,500.41l-.24,7.86h-.98l.32-7.86h.9ZM79.05,500.41l-2.06,5.71h-.24l-2.14-5.71h.8l1.66,4.43h-.37l1.63-4.43h.72ZM79.48,500.41l.32,7.86h-.98l-.24-7.86h.9Z"/>
    <path d="M81.92,507.41h5v.86h-5v-.86ZM82.16,502.69h2.3v.86h-2.3v-.86ZM84.27,501.04c-.26,0-.47-.06-.63-.19s-.25-.32-.25-.58c0-.22.08-.4.24-.54.16-.14.38-.22.66-.22s.51.07.65.2c.15.13.22.32.22.57s-.08.43-.24.56c-.16.13-.38.2-.66.2ZM83.9,502.69h1.03v5.58h-1.03v-5.58Z"/>
    <path d="M94.18,506.71c0,.32-.1.61-.29.86-.19.26-.49.46-.91.62s-.94.23-1.59.23c-.35,0-.72-.02-1.09-.05-.38-.04-.8-.1-1.26-.19l.16-.88c.42.09.83.15,1.23.2s.72.07.98.07c.66,0,1.12-.07,1.36-.22s.37-.34.37-.57c0-.19-.07-.35-.2-.47-.14-.12-.42-.24-.86-.34l-1.04-.24c-.51-.13-.9-.26-1.16-.41-.26-.14-.44-.31-.53-.51-.09-.2-.14-.42-.14-.68,0-.46.21-.85.62-1.15s1.1-.45,2.06-.45c.26,0,.59.02.97.06s.75.09,1.11.16l-.14.88c-.38-.09-.73-.15-1.07-.19s-.63-.06-.87-.06c-.42,0-.75.03-.99.09-.24.06-.4.14-.49.24-.09.1-.14.21-.14.34,0,.12.03.23.08.32.05.09.15.17.31.25s.38.15.67.23l1.03.24c.51.12.9.25,1.16.4.26.15.44.32.54.52.1.2.14.44.14.71Z"/>
    <path d="M97.46,499.75v8.52h-1.03v-8.52h1.03ZM97.3,504.99l-.17-.78c.41-.4.76-.72,1.06-.95.3-.23.58-.4.85-.5.26-.1.54-.15.82-.15.57,0,.99.16,1.27.48.28.32.42.75.42,1.3v3.89h-1.03v-3.71c0-.34-.07-.6-.22-.77s-.39-.25-.73-.25c-.18,0-.38.04-.58.13-.2.09-.43.24-.7.44s-.6.5-.99.86Z"/>
    <path d="M105.38,507.55c.22,0,.43-.03.64-.09.21-.06.45-.16.71-.31.26-.15.57-.35.91-.62l-.1.95h-.11c-.35.29-.71.51-1.09.65-.37.15-.77.22-1.21.22-.5,0-.9-.14-1.22-.41-.32-.27-.47-.66-.47-1.18,0-.36.06-.66.19-.89.12-.23.33-.41.62-.55.29-.13.68-.23,1.18-.28l2.35-.28v.67l-2.17.29c-.31.04-.55.1-.72.19s-.28.2-.34.32c-.06.13-.08.28-.08.44,0,.27.07.48.22.63.15.15.37.22.68.22ZM108.52,506.87c0,.24.03.4.1.48s.2.13.4.14l.54.04-.07.79-.56-.02c-.41-.02-.72-.1-.93-.22s-.36-.32-.44-.59l-.04-.28v-2.81c0-.24-.04-.43-.12-.56-.08-.14-.23-.24-.44-.3-.21-.06-.51-.1-.91-.1-.22,0-.51.02-.86.05s-.72.09-1.12.15l-.11-.83c.42-.07.82-.13,1.19-.16.37-.04.68-.05.94-.05.62,0,1.11.06,1.46.19.35.13.6.32.75.59.15.26.22.61.22,1.04v2.45Z"/>
    <path d="M112.04,502.69l.13,1.56h.02v4.02h-1.03v-5.58h.88ZM112.04,504.99l-.17-.78c.41-.4.76-.72,1.06-.95.3-.23.58-.4.85-.5.26-.1.54-.15.82-.15.57,0,.99.16,1.27.48.28.32.42.75.42,1.3v3.89h-1.03v-3.71c0-.34-.07-.6-.22-.77s-.39-.25-.73-.25c-.18,0-.38.04-.58.13-.2.09-.43.24-.7.44s-.6.5-.99.86Z"/>
  </g>
  <line class="st3" x1="124.22" y1="530.5" x2="124.22" y2="536.5"/>
  <g class="st0">
    <path d="M127.17,544.07c0,.88-.12,1.63-.36,2.24-.24.62-.57,1.08-1,1.4-.43.32-.93.48-1.51.48-.86,0-1.56-.35-2.08-1.05s-.79-1.71-.79-3.03c0-.87.12-1.62.36-2.23.24-.62.57-1.09,1-1.42.43-.33.93-.49,1.51-.49.87,0,1.57.35,2.09,1.06s.78,1.72.78,3.03ZM122.08,545.39l4.49-3.24v.65l-4.49,3.24v-.65ZM122.19,544.1c0,.77.09,1.41.26,1.93.17.52.42.91.73,1.17.32.26.69.39,1.12.39s.82-.13,1.13-.4.55-.66.73-1.18c.17-.52.26-1.16.26-1.92s-.09-1.42-.26-1.94c-.17-.52-.42-.91-.73-1.17-.32-.26-.69-.4-1.12-.4s-.82.13-1.13.4c-.32.26-.56.66-.73,1.18-.17.52-.25,1.16-.25,1.93Z"/>
  </g>
  <line class="st3" x1="279.22" y1="530.5" x2="279.22" y2="536.5"/>
  <g class="st0">
    <path d="M267.47,542.07c0,.22-.03.43-.09.62-.06.19-.16.39-.31.61-.15.22-.36.48-.63.79-.27.3-.62.68-1.06,1.13l-2.35,2.46.29-.62v.8l-1.01.02v-.3l2.65-2.84c.38-.4.68-.73.91-1,.23-.26.4-.49.53-.67.12-.18.21-.35.25-.5.04-.15.07-.32.07-.49,0-.44-.13-.8-.4-1.07-.27-.28-.65-.41-1.16-.41-.3,0-.57.04-.82.13-.25.09-.51.23-.78.44-.27.2-.6.49-.97.85l-.43-.49c.41-.4.77-.71,1.1-.94.32-.22.64-.38.95-.47s.63-.13.98-.13c.45,0,.84.09,1.19.26.34.18.61.42.81.73.2.31.29.68.29,1.09ZM262.31,548.02v-.26l.72-.35h4.64v.61h-5.36Z"/>
    <path d="M270.65,549.75v-.02c.25-.38.44-.69.59-.94s.26-.48.34-.68.14-.43.17-.66c.04-.23.07-.52.1-.86h1.2c-.04.39-.09.72-.14.99-.06.27-.14.51-.25.72-.11.21-.26.43-.46.65-.2.22-.46.49-.79.8h-.76Z"/>
    <path d="M282.5,544.07c0,.88-.12,1.63-.36,2.24-.24.62-.57,1.08-1,1.4-.43.32-.93.48-1.51.48-.86,0-1.56-.35-2.08-1.05s-.79-1.71-.79-3.03c0-.87.12-1.62.36-2.23.24-.62.57-1.09,1-1.42.43-.33.93-.49,1.51-.49.87,0,1.57.35,2.09,1.06s.78,1.72.78,3.03ZM277.42,545.39l4.49-3.24v.65l-4.49,3.24v-.65ZM277.52,544.1c0,.77.09,1.41.26,1.93.17.52.42.91.73,1.17.32.26.69.39,1.12.39s.82-.13,1.13-.4.55-.66.73-1.18c.17-.52.26-1.16.26-1.92s-.09-1.42-.26-1.94c-.17-.52-.42-.91-.73-1.17-.32-.26-.69-.4-1.12-.4s-.82.13-1.13.4c-.32.26-.56.66-.73,1.18-.17.52-.25,1.16-.25,1.93Z"/>
    <path d="M289.87,544.07c0,.88-.12,1.63-.36,2.24-.24.62-.57,1.08-1,1.4-.43.32-.93.48-1.51.48-.86,0-1.56-.35-2.08-1.05s-.79-1.71-.79-3.03c0-.87.12-1.62.36-2.23.24-.62.57-1.09,1-1.42.43-.33.93-.49,1.51-.49.87,0,1.57.35,2.09,1.06s.78,1.72.78,3.03ZM284.78,545.39l4.49-3.24v.65l-4.49,3.24v-.65ZM284.89,544.1c0,.77.09,1.41.26,1.93.17.52.42.91.73,1.17.32.26.69.39,1.12.39s.82-.13,1.13-.4.55-.66.73-1.18c.17-.52.26-1.16.26-1.92s-.09-1.42-.26-1.94c-.17-.52-.42-.91-.73-1.17-.32-.26-.69-.4-1.12-.4s-.82.13-1.13.4c-.32.26-.56.66-.73,1.18-.17.52-.25,1.16-.25,1.93Z"/>
    <path d="M297.24,544.07c0,.88-.12,1.63-.36,2.24-.24.62-.57,1.08-1,1.4-.43.32-.93.48-1.51.48-.86,0-1.56-.35-2.08-1.05s-.79-1.71-.79-3.03c0-.87.12-1.62.36-2.23.24-.62.57-1.09,1-1.42.43-.33.93-.49,1.51-.49.87,0,1.57.35,2.09,1.06s.78,1.72.78,3.03ZM292.15,545.39l4.49-3.24v.65l-4.49,3.24v-.65ZM292.26,544.1c0,.77.09,1.41.26,1.93.17.52.42.91.73,1.17.32.26.69.39,1.12.39s.82-.13,1.13-.4.55-.66.73-1.18c.17-.52.26-1.16.26-1.92s-.09-1.42-.26-1.94c-.17-.52-.42-.91-.73-1.17-.32-.26-.69-.4-1.12-.4s-.82.13-1.13.4c-.32.26-.56.66-.73,1.18-.17.52-.25,1.16-.25,1.93Z"/>
  </g>
  <line class="st3" x1="434.22" y1="530.5" x2="434.22" y2="536.5"/>
  <g class="st0">
    <path d="M416.92,545.52v-.3l3.59-5.06h.52l.07.25-3.61,5.08.24-.65v.68h-.8ZM416.92,545.79v-.41l.47-.18h3.79l.07-.02h1.9v.61h-6.23ZM421.57,540.16v7.86h-.76v-2.39l.05-.12v-5.35h.71Z"/>
    <path d="M425.65,549.75v-.02c.25-.38.44-.69.59-.94.14-.25.26-.48.34-.68s.14-.43.17-.66c.04-.23.07-.52.1-.86h1.2c-.04.39-.09.72-.14.99-.06.27-.14.51-.25.72-.11.21-.26.43-.46.65-.2.22-.46.49-.79.8h-.76Z"/>
    <path d="M437.5,544.07c0,.88-.12,1.63-.36,2.24-.24.62-.57,1.08-1,1.4-.43.32-.93.48-1.51.48-.86,0-1.56-.35-2.08-1.05s-.79-1.71-.79-3.03c0-.87.12-1.62.36-2.23.24-.62.57-1.09,1-1.42.43-.33.93-.49,1.51-.49.87,0,1.57.35,2.09,1.06s.78,1.72.78,3.03ZM432.42,545.39l4.49-3.24v.65l-4.49,3.24v-.65ZM432.52,544.1c0,.77.09,1.41.26,1.93.17.52.42.91.73,1.17.32.26.69.39,1.12.39s.82-.13,1.13-.4.55-.66.73-1.18c.17-.52.26-1.16.26-1.92s-.09-1.42-.26-1.94c-.17-.52-.42-.91-.73-1.17-.32-.26-.69-.4-1.12-.4s-.82.13-1.13.4c-.32.26-.56.66-.73,1.18-.17.52-.25,1.16-.25,1.93Z"/>
    <path d="M444.87,544.07c0,.88-.12,1.63-.36,2.24s-.57,1.08-1,1.4c-.43.32-.93.48-1.51.48-.86,0-1.56-.35-2.08-1.05s-.79-1.71-.79-3.03c0-.87.12-1.62.36-2.23s.57-1.09,1-1.42.93-.49,1.51-.49c.87,0,1.57.35,2.09,1.06s.78,1.72.78,3.03ZM439.78,545.39l4.49-3.24v.65l-4.49,3.24v-.65ZM439.89,544.1c0,.77.09,1.41.26,1.93.17.52.42.91.73,1.17.32.26.69.39,1.12.39s.82-.13,1.13-.4.55-.66.73-1.18.26-1.16.26-1.92-.09-1.42-.26-1.94c-.17-.52-.42-.91-.73-1.17-.32-.26-.69-.4-1.12-.4s-.82.13-1.13.4c-.32.26-.56.66-.72,1.18-.17.52-.25,1.16-.25,1.93Z"/>
    <path d="M452.24,544.07c0,.88-.12,1.63-.36,2.24-.24.62-.57,1.08-1,1.4-.43.32-.93.48-1.51.48-.86,0-1.56-.35-2.08-1.05-.52-.7-.79-1.71-.79-3.03,0-.87.12-1.62.36-2.23s.57-1.09,1-1.42.93-.49,1.51-.49c.87,0,1.57.35,2.09,1.06.52.71.78,1.72.78,3.03ZM447.15,545.39l4.49-3.24v.65l-4.49,3.24v-.65ZM447.26,544.1c0,.77.09,1.41.26,1.93.17.52.42.91.73,1.17.32.26.69.39,1.12.39s.82-.13,1.13-.4c.31-.26.55-.66.73-1.18.17-.52.26-1.16.26-1.92s-.09-1.42-.26-1.94c-.17-.52-.42-.91-.73-1.17-.32-.26-.69-.4-1.12-.4s-.82.13-1.13.4c-.32.26-.56.66-.73,1.18-.17.52-.25,1.16-.25,1.93Z"/>
  </g>
  <line class="st3" x1="589.22" y1="530.5" x2="589.22" y2="536.5"/>
  <g class="st0">
    <path d="M572.96,545.22c0,.49.09.91.26,1.27.18.36.42.63.72.82.3.19.64.28,1.01.28.39,0,.73-.1,1.02-.29.29-.19.51-.45.67-.77.16-.32.23-.68.23-1.07,0-.54-.17-.99-.52-1.35-.34-.36-.82-.53-1.44-.53-.36,0-.72.04-1.09.13-.37.08-.74.21-1.1.37l.19-.61c.42-.18.8-.31,1.13-.38.33-.07.66-.11,1-.11.5,0,.95.1,1.34.31s.7.5.92.88c.22.38.33.82.33,1.33s-.12.99-.35,1.4-.55.73-.96.97c-.41.23-.87.35-1.39.35-.32,0-.64-.06-.96-.17-.32-.12-.61-.29-.88-.53-.27-.24-.48-.54-.64-.91s-.24-.81-.24-1.31c0-.55.07-1.04.2-1.46.13-.42.34-.83.63-1.22.29-.39.68-.81,1.17-1.26l1.27-1.18h1.07v.02s-1.67,1.48-1.67,1.48c-.46.41-.84.8-1.12,1.17-.28.37-.48.75-.61,1.14-.13.39-.19.81-.19,1.25Z"/>
    <path d="M580.65,549.75v-.02c.25-.38.44-.69.59-.94.14-.25.26-.48.34-.68s.14-.43.17-.66c.04-.23.07-.52.1-.86h1.2c-.04.39-.09.72-.14.99-.06.27-.14.51-.25.72-.11.21-.26.43-.46.65-.2.22-.46.49-.79.8h-.76Z"/>
    <path d="M592.5,544.07c0,.88-.12,1.63-.36,2.24-.24.62-.57,1.08-1,1.4-.43.32-.93.48-1.51.48-.86,0-1.56-.35-2.08-1.05s-.79-1.71-.79-3.03c0-.87.12-1.62.36-2.23.24-.62.57-1.09,1-1.42.43-.33.93-.49,1.51-.49.87,0,1.57.35,2.09,1.06s.78,1.72.78,3.03ZM587.42,545.39l4.49-3.24v.65l-4.49,3.24v-.65ZM587.52,544.1c0,.77.09,1.41.26,1.93.17.52.42.91.73,1.17.32.26.69.39,1.12.39s.82-.13,1.13-.4.55-.66.73-1.18c.17-.52.26-1.16.26-1.92s-.09-1.42-.26-1.94c-.17-.52-.42-.91-.73-1.17-.32-.26-.69-.4-1.12-.4s-.82.13-1.13.4c-.32.26-.56.66-.73,1.18-.17.52-.25,1.16-.25,1.93Z"/>
    <path d="M599.87,544.07c0,.88-.12,1.63-.36,2.24s-.57,1.08-1,1.4c-.43.32-.93.48-1.51.48-.86,0-1.56-.35-2.08-1.05s-.79-1.71-.79-3.03c0-.87.12-1.62.36-2.23s.57-1.09,1-1.42.93-.49,1.51-.49c.87,0,1.57.35,2.09,1.06s.78,1.72.78,3.03ZM594.78,545.39l4.49-3.24v.65l-4.49,3.24v-.65ZM594.89,544.1c0,.77.09,1.41.26,1.93.17.52.42.91.73,1.17.32.26.69.39,1.12.39s.82-.13,1.13-.4.55-.66.73-1.18.26-1.16.26-1.92-.09-1.42-.26-1.94c-.17-.52-.42-.91-.73-1.17-.32-.26-.69-.4-1.12-.4s-.82.13-1.13.4c-.32.26-.56.66-.72,1.18-.17.52-.25,1.16-.25,1.93Z"/>
    <path d="M607.24,544.07c0,.88-.12,1.63-.36,2.24-.24.62-.57,1.08-1,1.4-.43.32-.93.48-1.51.48-.86,0-1.56-.35-2.08-1.05-.52-.7-.79-1.71-.79-3.03,0-.87.12-1.62.36-2.23s.57-1.09,1-1.42.93-.49,1.51-.49c.87,0,1.57.35,2.09,1.06.52.71.78,1.72.78,3.03ZM602.15,545.39l4.49-3.24v.65l-4.49,3.24v-.65ZM602.26,544.1c0,.77.09,1.41.26,1.93.17.52.42.91.73,1.17.32.26.69.39,1.12.39s.82-.13,1.13-.4c.31-.26.55-.66.73-1.18.17-.52.26-1.16.26-1.92s-.09-1.42-.26-1.94c-.17-.52-.42-.91-.73-1.17-.32-.26-.69-.4-1.12-.4s-.82.13-1.13.4c-.32.26-.56.66-.73,1.18-.17.52-.25,1.16-.25,1.93Z"/>
  </g>
  <line class="st3" x1="744.22" y1="530.5" x2="744.22" y2="536.5"/>
  <g class="st0">
    <path d="M729.89,548.2c-.51,0-.97-.09-1.37-.28-.4-.18-.72-.44-.95-.78-.23-.34-.35-.74-.35-1.2s.17-.89.5-1.24c.34-.36.77-.6,1.31-.74v-.06l1.76.06c.54.13.97.37,1.3.72.33.35.5.76.5,1.24s-.12.87-.35,1.21c-.24.34-.56.6-.96.79-.4.19-.87.28-1.39.28ZM730.79,543.96l-1.76-.06c-.46-.14-.84-.36-1.13-.68-.29-.32-.43-.69-.43-1.1s.11-.81.32-1.13c.21-.32.5-.57.88-.74.37-.18.79-.26,1.27-.26s.89.09,1.25.26.64.42.85.73c.21.32.31.69.31,1.12s-.14.79-.43,1.11c-.28.32-.66.56-1.12.7v.06ZM729.91,547.59c.54,0,1-.15,1.37-.44.37-.29.55-.69.55-1.21,0-.34-.09-.63-.26-.88-.18-.25-.41-.45-.7-.58-.29-.14-.61-.2-.96-.2s-.67.07-.97.21c-.29.14-.53.34-.7.59-.18.26-.26.55-.26.89,0,.49.19.88.56,1.18.37.3.83.44,1.39.44ZM729.91,543.64c.29,0,.57-.07.82-.2s.46-.32.61-.56c.16-.24.23-.51.23-.81,0-.45-.16-.81-.48-1.07-.32-.27-.72-.4-1.2-.4s-.89.13-1.21.4c-.32.26-.47.63-.47,1.1,0,.3.08.56.24.8.16.24.37.42.62.55s.53.2.83.2Z"/>
    <path d="M735.65,549.75v-.02c.25-.38.44-.69.59-.94.14-.25.26-.48.34-.68s.14-.43.17-.66c.04-.23.07-.52.1-.86h1.2c-.04.39-.09.72-.14.99-.06.27-.14.51-.25.72-.11.21-.26.43-.46.65-.2.22-.46.49-.79.8h-.76Z"/>
    <path d="M747.5,544.07c0,.88-.12,1.63-.36,2.24-.24.62-.57,1.08-1,1.4-.43.32-.93.48-1.51.48-.86,0-1.56-.35-2.08-1.05s-.79-1.71-.79-3.03c0-.87.12-1.62.36-2.23.24-.62.57-1.09,1-1.42.43-.33.93-.49,1.51-.49.87,0,1.57.35,2.09,1.06s.78,1.72.78,3.03ZM742.42,545.39l4.49-3.24v.65l-4.49,3.24v-.65ZM742.52,544.1c0,.77.09,1.41.26,1.93.17.52.42.91.73,1.17.32.26.69.39,1.12.39s.82-.13,1.13-.4.55-.66.73-1.18c.17-.52.26-1.16.26-1.92s-.09-1.42-.26-1.94c-.17-.52-.42-.91-.73-1.17-.32-.26-.69-.4-1.12-.4s-.82.13-1.13.4c-.32.26-.56.66-.73,1.18-.17.52-.25,1.16-.25,1.93Z"/>
    <path d="M754.87,544.07c0,.88-.12,1.63-.36,2.24s-.57,1.08-1,1.4c-.43.32-.93.48-1.51.48-.86,0-1.56-.35-2.08-1.05s-.79-1.71-.79-3.03c0-.87.12-1.62.36-2.23s.57-1.09,1-1.42.93-.49,1.51-.49c.87,0,1.57.35,2.09,1.06s.78,1.72.78,3.03ZM749.78,545.39l4.49-3.24v.65l-4.49,3.24v-.65ZM749.89,544.1c0,.77.09,1.41.26,1.93.17.52.42.91.73,1.17.32.26.69.39,1.12.39s.82-.13,1.13-.4.55-.66.73-1.18.26-1.16.26-1.92-.09-1.42-.26-1.94c-.17-.52-.42-.91-.73-1.17-.32-.26-.69-.4-1.12-.4s-.82.13-1.13.4c-.32.26-.56.66-.72,1.18-.17.52-.25,1.16-.25,1.93Z"/>
    <path d="M762.24,544.07c0,.88-.12,1.63-.36,2.24-.24.62-.57,1.08-1,1.4-.43.32-.93.48-1.51.48-.86,0-1.56-.35-2.08-1.05-.52-.7-.79-1.71-.79-3.03,0-.87.12-1.62.36-2.23s.57-1.09,1-1.42.93-.49,1.51-.49c.87,0,1.57.35,2.09,1.06.52.71.78,1.72.78,3.03ZM757.15,545.39l4.49-3.24v.65l-4.49,3.24v-.65ZM757.26,544.1c0,.77.09,1.41.26,1.93.17.52.42.91.73,1.17.32.26.69.39,1.12.39s.82-.13,1.13-.4c.31-.26.55-.66.73-1.18.17-.52.26-1.16.26-1.92s-.09-1.42-.26-1.94c-.17-.52-.42-.91-.73-1.17-.32-.26-.69-.4-1.12-.4s-.82.13-1.13.4c-.32.26-.56.66-.73,1.18-.17.52-.25,1.16-.25,1.93Z"/>
  </g>
  <path class="st3" d="M124.22,536.5v-6h620v6"/>
  <path class="st3" d="M118.22.5h6v530h-6"/>
</svg>